<svg width="700" height="550" viewBox="0 0 700 550" fill="none" xmlns="http://www.w3.org/2000/svg">
<path fill-rule="evenodd" clip-rule="evenodd" d="M0 20C0 8.95432 8.95428 0 20 0H680C691.046 0 700 8.95432 700 20V530C700 541.046 691.046 550 680 550H20C8.95428 550 0 541.046 0 530V20ZM83 38.5C83 50.3741 73.3741 60 61.5 60C49.6259 60 40 50.3741 40 38.5C40 26.6259 49.6259 17 61.5 17C73.3741 17 83 26.6259 83 38.5ZM61.5 119C73.3741 119 83 109.374 83 97.5C83 85.6259 73.3741 76 61.5 76C49.6259 76 40 85.6259 40 97.5C40 109.374 49.6259 119 61.5 119ZM83 156.5C83 168.374 73.3741 178 61.5 178C49.6259 178 40 168.374 40 156.5C40 144.626 49.6259 135 61.5 135C73.3741 135 83 144.626 83 156.5ZM61.5 237C73.3741 237 83 227.374 83 215.5C83 203.626 73.3741 194 61.5 194C49.6259 194 40 203.626 40 215.5C40 227.374 49.6259 237 61.5 237ZM83 274.5C83 286.374 73.3741 296 61.5 296C49.6259 296 40 286.374 40 274.5C40 262.626 49.6259 253 61.5 253C73.3741 253 83 262.626 83 274.5ZM61.5 355C73.3741 355 83 345.374 83 333.5C83 321.626 73.3741 312 61.5 312C49.6259 312 40 321.626 40 333.5C40 345.374 49.6259 355 61.5 355ZM83 392.5C83 404.374 73.3741 414 61.5 414C49.6259 414 40 404.374 40 392.5C40 380.626 49.6259 371 61.5 371C73.3741 371 83 380.626 83 392.5ZM61.5 473C73.3741 473 83 463.374 83 451.5C83 439.626 73.3741 430 61.5 430C49.6259 430 40 439.626 40 451.5C40 463.374 49.6259 473 61.5 473ZM83 510.5C83 522.374 73.3741 532 61.5 532C49.6259 532 40 522.374 40 510.5C40 498.626 49.6259 489 61.5 489C73.3741 489 83 498.626 83 510.5ZM253.5 60C265.374 60 275 50.3741 275 38.5C275 26.6259 265.374 17 253.5 17C241.626 17 232 26.6259 232 38.5C232 50.3741 241.626 60 253.5 60ZM275 97.5C275 109.374 265.374 119 253.5 119C241.626 119 232 109.374 232 97.5C232 85.6259 241.626 76 253.5 76C265.374 76 275 85.6259 275 97.5ZM253.5 178C265.374 178 275 168.374 275 156.5C275 144.626 265.374 135 253.5 135C241.626 135 232 144.626 232 156.5C232 168.374 241.626 178 253.5 178ZM275 215.5C275 227.374 265.374 237 253.5 237C241.626 237 232 227.374 232 215.5C232 203.626 241.626 194 253.5 194C265.374 194 275 203.626 275 215.5ZM253.5 296C265.374 296 275 286.374 275 274.5C275 262.626 265.374 253 253.5 253C241.626 253 232 262.626 232 274.5C232 286.374 241.626 296 253.5 296ZM275 333.5C275 345.374 265.374 355 253.5 355C241.626 355 232 345.374 232 333.5C232 321.626 241.626 312 253.5 312C265.374 312 275 321.626 275 333.5ZM253.5 414C265.374 414 275 404.374 275 392.5C275 380.626 265.374 371 253.5 371C241.626 371 232 380.626 232 392.5C232 404.374 241.626 414 253.5 414ZM275 451.5C275 463.374 265.374 473 253.5 473C241.626 473 232 463.374 232 451.5C232 439.626 241.626 430 253.5 430C265.374 430 275 439.626 275 451.5ZM253.5 532C265.374 532 275 522.374 275 510.5C275 498.626 265.374 489 253.5 489C241.626 489 232 498.626 232 510.5C232 522.374 241.626 532 253.5 532ZM467 38.5C467 50.3741 457.374 60 445.5 60C433.626 60 424 50.3741 424 38.5C424 26.6259 433.626 17 445.5 17C457.374 17 467 26.6259 467 38.5ZM445.5 119C457.374 119 467 109.374 467 97.5C467 85.6259 457.374 76 445.5 76C433.626 76 424 85.6259 424 97.5C424 109.374 433.626 119 445.5 119ZM467 156.5C467 168.374 457.374 178 445.5 178C433.626 178 424 168.374 424 156.5C424 144.626 433.626 135 445.5 135C457.374 135 467 144.626 467 156.5ZM445.5 237C457.374 237 467 227.374 467 215.5C467 203.626 457.374 194 445.5 194C433.626 194 424 203.626 424 215.5C424 227.374 433.626 237 445.5 237ZM467 274.5C467 286.374 457.374 296 445.5 296C433.626 296 424 286.374 424 274.5C424 262.626 433.626 253 445.5 253C457.374 253 467 262.626 467 274.5ZM445.5 355C457.374 355 467 345.374 467 333.5C467 321.626 457.374 312 445.5 312C433.626 312 424 321.626 424 333.5C424 345.374 433.626 355 445.5 355ZM467 392.5C467 404.374 457.374 414 445.5 414C433.626 414 424 404.374 424 392.5C424 380.626 433.626 371 445.5 371C457.374 371 467 380.626 467 392.5ZM445.5 473C457.374 473 467 463.374 467 451.5C467 439.626 457.374 430 445.5 430C433.626 430 424 439.626 424 451.5C424 463.374 433.626 473 445.5 473ZM467 510.5C467 522.374 457.374 532 445.5 532C433.626 532 424 522.374 424 510.5C424 498.626 433.626 489 445.5 489C457.374 489 467 498.626 467 510.5ZM125.5 60C137.374 60 147 50.3741 147 38.5C147 26.6259 137.374 17 125.5 17C113.626 17 104 26.6259 104 38.5C104 50.3741 113.626 60 125.5 60ZM147 97.5C147 109.374 137.374 119 125.5 119C113.626 119 104 109.374 104 97.5C104 85.6259 113.626 76 125.5 76C137.374 76 147 85.6259 147 97.5ZM125.5 178C137.374 178 147 168.374 147 156.5C147 144.626 137.374 135 125.5 135C113.626 135 104 144.626 104 156.5C104 168.374 113.626 178 125.5 178ZM147 215.5C147 227.374 137.374 237 125.5 237C113.626 237 104 227.374 104 215.5C104 203.626 113.626 194 125.5 194C137.374 194 147 203.626 147 215.5ZM125.5 296C137.374 296 147 286.374 147 274.5C147 262.626 137.374 253 125.5 253C113.626 253 104 262.626 104 274.5C104 286.374 113.626 296 125.5 296ZM147 333.5C147 345.374 137.374 355 125.5 355C113.626 355 104 345.374 104 333.5C104 321.626 113.626 312 125.5 312C137.374 312 147 321.626 147 333.5ZM125.5 414C137.374 414 147 404.374 147 392.5C147 380.626 137.374 371 125.5 371C113.626 371 104 380.626 104 392.5C104 404.374 113.626 414 125.5 414ZM147 451.5C147 463.374 137.374 473 125.5 473C113.626 473 104 463.374 104 451.5C104 439.626 113.626 430 125.5 430C137.374 430 147 439.626 147 451.5ZM125.5 532C137.374 532 147 522.374 147 510.5C147 498.626 137.374 489 125.5 489C113.626 489 104 498.626 104 510.5C104 522.374 113.626 532 125.5 532ZM339 38.5C339 50.3741 329.374 60 317.5 60C305.626 60 296 50.3741 296 38.5C296 26.6259 305.626 17 317.5 17C329.374 17 339 26.6259 339 38.5ZM317.5 119C329.374 119 339 109.374 339 97.5C339 85.6259 329.374 76 317.5 76C305.626 76 296 85.6259 296 97.5C296 109.374 305.626 119 317.5 119ZM339 156.5C339 168.374 329.374 178 317.5 178C305.626 178 296 168.374 296 156.5C296 144.626 305.626 135 317.5 135C329.374 135 339 144.626 339 156.5ZM317.5 237C329.374 237 339 227.374 339 215.5C339 203.626 329.374 194 317.5 194C305.626 194 296 203.626 296 215.5C296 227.374 305.626 237 317.5 237ZM339 274.5C339 286.374 329.374 296 317.5 296C305.626 296 296 286.374 296 274.5C296 262.626 305.626 253 317.5 253C329.374 253 339 262.626 339 274.5ZM317.5 355C329.374 355 339 345.374 339 333.5C339 321.626 329.374 312 317.5 312C305.626 312 296 321.626 296 333.5C296 345.374 305.626 355 317.5 355ZM339 392.5C339 404.374 329.374 414 317.5 414C305.626 414 296 404.374 296 392.5C296 380.626 305.626 371 317.5 371C329.374 371 339 380.626 339 392.5ZM317.5 473C329.374 473 339 463.374 339 451.5C339 439.626 329.374 430 317.5 430C305.626 430 296 439.626 296 451.5C296 463.374 305.626 473 317.5 473ZM339 510.5C339 522.374 329.374 532 317.5 532C305.626 532 296 522.374 296 510.5C296 498.626 305.626 489 317.5 489C329.374 489 339 498.626 339 510.5ZM509.5 60C521.374 60 531 50.3741 531 38.5C531 26.6259 521.374 17 509.5 17C497.626 17 488 26.6259 488 38.5C488 50.3741 497.626 60 509.5 60ZM531 97.5C531 109.374 521.374 119 509.5 119C497.626 119 488 109.374 488 97.5C488 85.6259 497.626 76 509.5 76C521.374 76 531 85.6259 531 97.5ZM509.5 178C521.374 178 531 168.374 531 156.5C531 144.626 521.374 135 509.5 135C497.626 135 488 144.626 488 156.5C488 168.374 497.626 178 509.5 178ZM531 215.5C531 227.374 521.374 237 509.5 237C497.626 237 488 227.374 488 215.5C488 203.626 497.626 194 509.5 194C521.374 194 531 203.626 531 215.5ZM509.5 296C521.374 296 531 286.374 531 274.5C531 262.626 521.374 253 509.5 253C497.626 253 488 262.626 488 274.5C488 286.374 497.626 296 509.5 296ZM531 333.5C531 345.374 521.374 355 509.5 355C497.626 355 488 345.374 488 333.5C488 321.626 497.626 312 509.5 312C521.374 312 531 321.626 531 333.5ZM509.5 414C521.374 414 531 404.374 531 392.5C531 380.626 521.374 371 509.5 371C497.626 371 488 380.626 488 392.5C488 404.374 497.626 414 509.5 414ZM531 451.5C531 463.374 521.374 473 509.5 473C497.626 473 488 463.374 488 451.5C488 439.626 497.626 430 509.5 430C521.374 430 531 439.626 531 451.5ZM509.5 532C521.374 532 531 522.374 531 510.5C531 498.626 521.374 489 509.5 489C497.626 489 488 498.626 488 510.5C488 522.374 497.626 532 509.5 532ZM211 38.5C211 50.3741 201.374 60 189.5 60C177.626 60 168 50.3741 168 38.5C168 26.6259 177.626 17 189.5 17C201.374 17 211 26.6259 211 38.5ZM189.5 119C201.374 119 211 109.374 211 97.5C211 85.6259 201.374 76 189.5 76C177.626 76 168 85.6259 168 97.5C168 109.374 177.626 119 189.5 119ZM211 156.5C211 168.374 201.374 178 189.5 178C177.626 178 168 168.374 168 156.5C168 144.626 177.626 135 189.5 135C201.374 135 211 144.626 211 156.5ZM189.5 237C201.374 237 211 227.374 211 215.5C211 203.626 201.374 194 189.5 194C177.626 194 168 203.626 168 215.5C168 227.374 177.626 237 189.5 237ZM211 274.5C211 286.374 201.374 296 189.5 296C177.626 296 168 286.374 168 274.5C168 262.626 177.626 253 189.5 253C201.374 253 211 262.626 211 274.5ZM189.5 355C201.374 355 211 345.374 211 333.5C211 321.626 201.374 312 189.5 312C177.626 312 168 321.626 168 333.5C168 345.374 177.626 355 189.5 355ZM211 392.5C211 404.374 201.374 414 189.5 414C177.626 414 168 404.374 168 392.5C168 380.626 177.626 371 189.5 371C201.374 371 211 380.626 211 392.5ZM189.5 473C201.374 473 211 463.374 211 451.5C211 439.626 201.374 430 189.5 430C177.626 430 168 439.626 168 451.5C168 463.374 177.626 473 189.5 473ZM211 510.5C211 522.374 201.374 532 189.5 532C177.626 532 168 522.374 168 510.5C168 498.626 177.626 489 189.5 489C201.374 489 211 498.626 211 510.5ZM381.5 60C393.374 60 403 50.3741 403 38.5C403 26.6259 393.374 17 381.5 17C369.626 17 360 26.6259 360 38.5C360 50.3741 369.626 60 381.5 60ZM403 97.5C403 109.374 393.374 119 381.5 119C369.626 119 360 109.374 360 97.5C360 85.6259 369.626 76 381.5 76C393.374 76 403 85.6259 403 97.5ZM381.5 178C393.374 178 403 168.374 403 156.5C403 144.626 393.374 135 381.5 135C369.626 135 360 144.626 360 156.5C360 168.374 369.626 178 381.5 178ZM403 215.5C403 227.374 393.374 237 381.5 237C369.626 237 360 227.374 360 215.5C360 203.626 369.626 194 381.5 194C393.374 194 403 203.626 403 215.5ZM381.5 296C393.374 296 403 286.374 403 274.5C403 262.626 393.374 253 381.5 253C369.626 253 360 262.626 360 274.5C360 286.374 369.626 296 381.5 296ZM403 333.5C403 345.374 393.374 355 381.5 355C369.626 355 360 345.374 360 333.5C360 321.626 369.626 312 381.5 312C393.374 312 403 321.626 403 333.5ZM381.5 414C393.374 414 403 404.374 403 392.5C403 380.626 393.374 371 381.5 371C369.626 371 360 380.626 360 392.5C360 404.374 369.626 414 381.5 414ZM403 451.5C403 463.374 393.374 473 381.5 473C369.626 473 360 463.374 360 451.5C360 439.626 369.626 430 381.5 430C393.374 430 403 439.626 403 451.5ZM381.5 532C393.374 532 403 522.374 403 510.5C403 498.626 393.374 489 381.5 489C369.626 489 360 498.626 360 510.5C360 522.374 369.626 532 381.5 532ZM595 38.5C595 50.3741 585.374 60 573.5 60C561.626 60 552 50.3741 552 38.5C552 26.6259 561.626 17 573.5 17C585.374 17 595 26.6259 595 38.5ZM573.5 119C585.374 119 595 109.374 595 97.5C595 85.6259 585.374 76 573.5 76C561.626 76 552 85.6259 552 97.5C552 109.374 561.626 119 573.5 119ZM595 156.5C595 168.374 585.374 178 573.5 178C561.626 178 552 168.374 552 156.5C552 144.626 561.626 135 573.5 135C585.374 135 595 144.626 595 156.5ZM573.5 237C585.374 237 595 227.374 595 215.5C595 203.626 585.374 194 573.5 194C561.626 194 552 203.626 552 215.5C552 227.374 561.626 237 573.5 237ZM595 274.5C595 286.374 585.374 296 573.5 296C561.626 296 552 286.374 552 274.5C552 262.626 561.626 253 573.5 253C585.374 253 595 262.626 595 274.5ZM573.5 355C585.374 355 595 345.374 595 333.5C595 321.626 585.374 312 573.5 312C561.626 312 552 321.626 552 333.5C552 345.374 561.626 355 573.5 355ZM595 392.5C595 404.374 585.374 414 573.5 414C561.626 414 552 404.374 552 392.5C552 380.626 561.626 371 573.5 371C585.374 371 595 380.626 595 392.5ZM573.5 473C585.374 473 595 463.374 595 451.5C595 439.626 585.374 430 573.5 430C561.626 430 552 439.626 552 451.5C552 463.374 561.626 473 573.5 473ZM595 510.5C595 522.374 585.374 532 573.5 532C561.626 532 552 522.374 552 510.5C552 498.626 561.626 489 573.5 489C585.374 489 595 498.626 595 510.5ZM637.5 60C649.374 60 659 50.3741 659 38.5C659 26.6259 649.374 17 637.5 17C625.626 17 616 26.6259 616 38.5C616 50.3741 625.626 60 637.5 60ZM659 97.5C659 109.374 649.374 119 637.5 119C625.626 119 616 109.374 616 97.5C616 85.6259 625.626 76 637.5 76C649.374 76 659 85.6259 659 97.5ZM637.5 178C649.374 178 659 168.374 659 156.5C659 144.626 649.374 135 637.5 135C625.626 135 616 144.626 616 156.5C616 168.374 625.626 178 637.5 178ZM659 215.5C659 227.374 649.374 237 637.5 237C625.626 237 616 227.374 616 215.5C616 203.626 625.626 194 637.5 194C649.374 194 659 203.626 659 215.5ZM637.5 296C649.374 296 659 286.374 659 274.5C659 262.626 649.374 253 637.5 253C625.626 253 616 262.626 616 274.5C616 286.374 625.626 296 637.5 296ZM659 333.5C659 345.374 649.374 355 637.5 355C625.626 355 616 345.374 616 333.5C616 321.626 625.626 312 637.5 312C649.374 312 659 321.626 659 333.5ZM637.5 414C649.374 414 659 404.374 659 392.5C659 380.626 649.374 371 637.5 371C625.626 371 616 380.626 616 392.5C616 404.374 625.626 414 637.5 414ZM659 451.5C659 463.374 649.374 473 637.5 473C625.626 473 616 463.374 616 451.5C616 439.626 625.626 430 637.5 430C649.374 430 659 439.626 659 451.5ZM637.5 532C649.374 532 659 522.374 659 510.5C659 498.626 649.374 489 637.5 489C625.626 489 616 498.626 616 510.5C616 522.374 625.626 532 637.5 532Z" fill="url(#paint0_linear)"/>
<g filter="url(#filter0_d)">
<path fill-rule="evenodd" clip-rule="evenodd" d="M381.5 64C395.583 64 407 52.5833 407 38.5C407 24.4167 395.583 13 381.5 13C367.417 13 356 24.4167 356 38.5C356 52.5833 367.417 64 381.5 64ZM381.5 60C393.374 60 403 50.3741 403 38.5C403 26.6259 393.374 17 381.5 17C369.626 17 360 26.6259 360 38.5C360 50.3741 369.626 60 381.5 60Z" fill="url(#paint1_linear)"/>
<path fill-rule="evenodd" clip-rule="evenodd" d="M381.5 123C395.583 123 407 111.583 407 97.5C407 83.4167 395.583 72 381.5 72C367.417 72 356 83.4167 356 97.5C356 111.583 367.417 123 381.5 123ZM381.5 119C393.374 119 403 109.374 403 97.5C403 85.6259 393.374 76 381.5 76C369.626 76 360 85.6259 360 97.5C360 109.374 369.626 119 381.5 119Z" fill="url(#paint2_linear)"/>
<path fill-rule="evenodd" clip-rule="evenodd" d="M381.5 182C395.583 182 407 170.583 407 156.5C407 142.417 395.583 131 381.5 131C367.417 131 356 142.417 356 156.5C356 170.583 367.417 182 381.5 182ZM381.5 178C393.374 178 403 168.374 403 156.5C403 144.626 393.374 135 381.5 135C369.626 135 360 144.626 360 156.5C360 168.374 369.626 178 381.5 178Z" fill="url(#paint3_linear)"/>
<path fill-rule="evenodd" clip-rule="evenodd" d="M381.5 241C395.583 241 407 229.583 407 215.5C407 201.417 395.583 190 381.5 190C367.417 190 356 201.417 356 215.5C356 229.583 367.417 241 381.5 241ZM381.5 237C393.374 237 403 227.374 403 215.5C403 203.626 393.374 194 381.5 194C369.626 194 360 203.626 360 215.5C360 227.374 369.626 237 381.5 237Z" fill="url(#paint4_linear)"/>
<path fill-rule="evenodd" clip-rule="evenodd" d="M381.5 300C395.583 300 407 288.583 407 274.5C407 260.417 395.583 249 381.5 249C367.417 249 356 260.417 356 274.5C356 288.583 367.417 300 381.5 300ZM381.5 296C393.374 296 403 286.374 403 274.5C403 262.626 393.374 253 381.5 253C369.626 253 360 262.626 360 274.5C360 286.374 369.626 296 381.5 296Z" fill="url(#paint5_linear)"/>
<path fill-rule="evenodd" clip-rule="evenodd" d="M381.5 359C395.583 359 407 347.583 407 333.5C407 319.417 395.583 308 381.5 308C367.417 308 356 319.417 356 333.5C356 347.583 367.417 359 381.5 359ZM381.5 355C393.374 355 403 345.374 403 333.5C403 321.626 393.374 312 381.5 312C369.626 312 360 321.626 360 333.5C360 345.374 369.626 355 381.5 355Z" fill="url(#paint6_linear)"/>
<path fill-rule="evenodd" clip-rule="evenodd" d="M381.5 418C395.583 418 407 406.583 407 392.5C407 378.417 395.583 367 381.5 367C367.417 367 356 378.417 356 392.5C356 406.583 367.417 418 381.5 418ZM381.5 414C393.374 414 403 404.374 403 392.5C403 380.626 393.374 371 381.5 371C369.626 371 360 380.626 360 392.5C360 404.374 369.626 414 381.5 414Z" fill="url(#paint7_linear)"/>
<path fill-rule="evenodd" clip-rule="evenodd" d="M381.5 477C395.583 477 407 465.583 407 451.5C407 437.417 395.583 426 381.5 426C367.417 426 356 437.417 356 451.5C356 465.583 367.417 477 381.5 477ZM381.5 473C393.374 473 403 463.374 403 451.5C403 439.626 393.374 430 381.5 430C369.626 430 360 439.626 360 451.5C360 463.374 369.626 473 381.5 473Z" fill="url(#paint8_linear)"/>
<path fill-rule="evenodd" clip-rule="evenodd" d="M381.5 536C395.583 536 407 524.583 407 510.5C407 496.417 395.583 485 381.5 485C367.417 485 356 496.417 356 510.5C356 524.583 367.417 536 381.5 536ZM381.5 532C393.374 532 403 522.374 403 510.5C403 498.626 393.374 489 381.5 489C369.626 489 360 498.626 360 510.5C360 522.374 369.626 532 381.5 532Z" fill="url(#paint9_linear)"/>
<path fill-rule="evenodd" clip-rule="evenodd" d="M189.5 64C203.583 64 215 52.5833 215 38.5C215 24.4167 203.583 13 189.5 13C175.417 13 164 24.4167 164 38.5C164 52.5833 175.417 64 189.5 64ZM189.5 60C201.374 60 211 50.3741 211 38.5C211 26.6259 201.374 17 189.5 17C177.626 17 168 26.6259 168 38.5C168 50.3741 177.626 60 189.5 60Z" fill="url(#paint10_linear)"/>
<path fill-rule="evenodd" clip-rule="evenodd" d="M189.5 123C203.583 123 215 111.583 215 97.5C215 83.4167 203.583 72 189.5 72C175.417 72 164 83.4167 164 97.5C164 111.583 175.417 123 189.5 123ZM189.5 119C201.374 119 211 109.374 211 97.5C211 85.6259 201.374 76 189.5 76C177.626 76 168 85.6259 168 97.5C168 109.374 177.626 119 189.5 119Z" fill="url(#paint11_linear)"/>
<path fill-rule="evenodd" clip-rule="evenodd" d="M189.5 182C203.583 182 215 170.583 215 156.5C215 142.417 203.583 131 189.5 131C175.417 131 164 142.417 164 156.5C164 170.583 175.417 182 189.5 182ZM189.5 178C201.374 178 211 168.374 211 156.5C211 144.626 201.374 135 189.5 135C177.626 135 168 144.626 168 156.5C168 168.374 177.626 178 189.5 178Z" fill="url(#paint12_linear)"/>
<path fill-rule="evenodd" clip-rule="evenodd" d="M189.5 241C203.583 241 215 229.583 215 215.5C215 201.417 203.583 190 189.5 190C175.417 190 164 201.417 164 215.5C164 229.583 175.417 241 189.5 241ZM189.5 237C201.374 237 211 227.374 211 215.5C211 203.626 201.374 194 189.5 194C177.626 194 168 203.626 168 215.5C168 227.374 177.626 237 189.5 237Z" fill="url(#paint13_linear)"/>
<path fill-rule="evenodd" clip-rule="evenodd" d="M189.5 300C203.583 300 215 288.583 215 274.5C215 260.417 203.583 249 189.5 249C175.417 249 164 260.417 164 274.5C164 288.583 175.417 300 189.5 300ZM189.5 296C201.374 296 211 286.374 211 274.5C211 262.626 201.374 253 189.5 253C177.626 253 168 262.626 168 274.5C168 286.374 177.626 296 189.5 296Z" fill="url(#paint14_linear)"/>
<path fill-rule="evenodd" clip-rule="evenodd" d="M189.5 359C203.583 359 215 347.583 215 333.5C215 319.417 203.583 308 189.5 308C175.417 308 164 319.417 164 333.5C164 347.583 175.417 359 189.5 359ZM189.5 355C201.374 355 211 345.374 211 333.5C211 321.626 201.374 312 189.5 312C177.626 312 168 321.626 168 333.5C168 345.374 177.626 355 189.5 355Z" fill="url(#paint15_linear)"/>
<path fill-rule="evenodd" clip-rule="evenodd" d="M189.5 418C203.583 418 215 406.583 215 392.5C215 378.417 203.583 367 189.5 367C175.417 367 164 378.417 164 392.5C164 406.583 175.417 418 189.5 418ZM189.5 414C201.374 414 211 404.374 211 392.5C211 380.626 201.374 371 189.5 371C177.626 371 168 380.626 168 392.5C168 404.374 177.626 414 189.5 414Z" fill="url(#paint16_linear)"/>
<path fill-rule="evenodd" clip-rule="evenodd" d="M189.5 477C203.583 477 215 465.583 215 451.5C215 437.417 203.583 426 189.5 426C175.417 426 164 437.417 164 451.5C164 465.583 175.417 477 189.5 477ZM189.5 473C201.374 473 211 463.374 211 451.5C211 439.626 201.374 430 189.5 430C177.626 430 168 439.626 168 451.5C168 463.374 177.626 473 189.5 473Z" fill="url(#paint17_linear)"/>
<path fill-rule="evenodd" clip-rule="evenodd" d="M189.5 536C203.583 536 215 524.583 215 510.5C215 496.417 203.583 485 189.5 485C175.417 485 164 496.417 164 510.5C164 524.583 175.417 536 189.5 536ZM189.5 532C201.374 532 211 522.374 211 510.5C211 498.626 201.374 489 189.5 489C177.626 489 168 498.626 168 510.5C168 522.374 177.626 532 189.5 532Z" fill="url(#paint18_linear)"/>
<path fill-rule="evenodd" clip-rule="evenodd" d="M573.5 64C587.583 64 599 52.5833 599 38.5C599 24.4167 587.583 13 573.5 13C559.417 13 548 24.4167 548 38.5C548 52.5833 559.417 64 573.5 64ZM573.5 60C585.374 60 595 50.3741 595 38.5C595 26.6259 585.374 17 573.5 17C561.626 17 552 26.6259 552 38.5C552 50.3741 561.626 60 573.5 60Z" fill="url(#paint19_linear)"/>
<path fill-rule="evenodd" clip-rule="evenodd" d="M573.5 123C587.583 123 599 111.583 599 97.5C599 83.4167 587.583 72 573.5 72C559.417 72 548 83.4167 548 97.5C548 111.583 559.417 123 573.5 123ZM573.5 119C585.374 119 595 109.374 595 97.5C595 85.6259 585.374 76 573.5 76C561.626 76 552 85.6259 552 97.5C552 109.374 561.626 119 573.5 119Z" fill="url(#paint20_linear)"/>
<path fill-rule="evenodd" clip-rule="evenodd" d="M573.5 182C587.583 182 599 170.583 599 156.5C599 142.417 587.583 131 573.5 131C559.417 131 548 142.417 548 156.5C548 170.583 559.417 182 573.5 182ZM573.5 178C585.374 178 595 168.374 595 156.5C595 144.626 585.374 135 573.5 135C561.626 135 552 144.626 552 156.5C552 168.374 561.626 178 573.5 178Z" fill="url(#paint21_linear)"/>
<path fill-rule="evenodd" clip-rule="evenodd" d="M573.5 241C587.583 241 599 229.583 599 215.5C599 201.417 587.583 190 573.5 190C559.417 190 548 201.417 548 215.5C548 229.583 559.417 241 573.5 241ZM573.5 237C585.374 237 595 227.374 595 215.5C595 203.626 585.374 194 573.5 194C561.626 194 552 203.626 552 215.5C552 227.374 561.626 237 573.5 237Z" fill="url(#paint22_linear)"/>
<path fill-rule="evenodd" clip-rule="evenodd" d="M573.5 300C587.583 300 599 288.583 599 274.5C599 260.417 587.583 249 573.5 249C559.417 249 548 260.417 548 274.5C548 288.583 559.417 300 573.5 300ZM573.5 296C585.374 296 595 286.374 595 274.5C595 262.626 585.374 253 573.5 253C561.626 253 552 262.626 552 274.5C552 286.374 561.626 296 573.5 296Z" fill="url(#paint23_linear)"/>
<path fill-rule="evenodd" clip-rule="evenodd" d="M573.5 359C587.583 359 599 347.583 599 333.5C599 319.417 587.583 308 573.5 308C559.417 308 548 319.417 548 333.5C548 347.583 559.417 359 573.5 359ZM573.5 355C585.374 355 595 345.374 595 333.5C595 321.626 585.374 312 573.5 312C561.626 312 552 321.626 552 333.5C552 345.374 561.626 355 573.5 355Z" fill="url(#paint24_linear)"/>
<path fill-rule="evenodd" clip-rule="evenodd" d="M573.5 418C587.583 418 599 406.583 599 392.5C599 378.417 587.583 367 573.5 367C559.417 367 548 378.417 548 392.5C548 406.583 559.417 418 573.5 418ZM573.5 414C585.374 414 595 404.374 595 392.5C595 380.626 585.374 371 573.5 371C561.626 371 552 380.626 552 392.5C552 404.374 561.626 414 573.5 414Z" fill="url(#paint25_linear)"/>
<path fill-rule="evenodd" clip-rule="evenodd" d="M573.5 477C587.583 477 599 465.583 599 451.5C599 437.417 587.583 426 573.5 426C559.417 426 548 437.417 548 451.5C548 465.583 559.417 477 573.5 477ZM573.5 473C585.374 473 595 463.374 595 451.5C595 439.626 585.374 430 573.5 430C561.626 430 552 439.626 552 451.5C552 463.374 561.626 473 573.5 473Z" fill="url(#paint26_linear)"/>
<path fill-rule="evenodd" clip-rule="evenodd" d="M573.5 536C587.583 536 599 524.583 599 510.5C599 496.417 587.583 485 573.5 485C559.417 485 548 496.417 548 510.5C548 524.583 559.417 536 573.5 536ZM573.5 532C585.374 532 595 522.374 595 510.5C595 498.626 585.374 489 573.5 489C561.626 489 552 498.626 552 510.5C552 522.374 561.626 532 573.5 532Z" fill="url(#paint27_linear)"/>
<path fill-rule="evenodd" clip-rule="evenodd" d="M317.5 64C331.583 64 343 52.5833 343 38.5C343 24.4167 331.583 13 317.5 13C303.417 13 292 24.4167 292 38.5C292 52.5833 303.417 64 317.5 64ZM317.5 60C329.374 60 339 50.3741 339 38.5C339 26.6259 329.374 17 317.5 17C305.626 17 296 26.6259 296 38.5C296 50.3741 305.626 60 317.5 60Z" fill="url(#paint28_linear)"/>
<path fill-rule="evenodd" clip-rule="evenodd" d="M317.5 123C331.583 123 343 111.583 343 97.5C343 83.4167 331.583 72 317.5 72C303.417 72 292 83.4167 292 97.5C292 111.583 303.417 123 317.5 123ZM317.5 119C329.374 119 339 109.374 339 97.5C339 85.6259 329.374 76 317.5 76C305.626 76 296 85.6259 296 97.5C296 109.374 305.626 119 317.5 119Z" fill="url(#paint29_linear)"/>
<path fill-rule="evenodd" clip-rule="evenodd" d="M317.5 182C331.583 182 343 170.583 343 156.5C343 142.417 331.583 131 317.5 131C303.417 131 292 142.417 292 156.5C292 170.583 303.417 182 317.5 182ZM317.5 178C329.374 178 339 168.374 339 156.5C339 144.626 329.374 135 317.5 135C305.626 135 296 144.626 296 156.5C296 168.374 305.626 178 317.5 178Z" fill="url(#paint30_linear)"/>
<path fill-rule="evenodd" clip-rule="evenodd" d="M317.5 241C331.583 241 343 229.583 343 215.5C343 201.417 331.583 190 317.5 190C303.417 190 292 201.417 292 215.5C292 229.583 303.417 241 317.5 241ZM317.5 237C329.374 237 339 227.374 339 215.5C339 203.626 329.374 194 317.5 194C305.626 194 296 203.626 296 215.5C296 227.374 305.626 237 317.5 237Z" fill="url(#paint31_linear)"/>
<path fill-rule="evenodd" clip-rule="evenodd" d="M317.5 300C331.583 300 343 288.583 343 274.5C343 260.417 331.583 249 317.5 249C303.417 249 292 260.417 292 274.5C292 288.583 303.417 300 317.5 300ZM317.5 296C329.374 296 339 286.374 339 274.5C339 262.626 329.374 253 317.5 253C305.626 253 296 262.626 296 274.5C296 286.374 305.626 296 317.5 296Z" fill="url(#paint32_linear)"/>
<path fill-rule="evenodd" clip-rule="evenodd" d="M317.5 359C331.583 359 343 347.583 343 333.5C343 319.417 331.583 308 317.5 308C303.417 308 292 319.417 292 333.5C292 347.583 303.417 359 317.5 359ZM317.5 355C329.374 355 339 345.374 339 333.5C339 321.626 329.374 312 317.5 312C305.626 312 296 321.626 296 333.5C296 345.374 305.626 355 317.5 355Z" fill="url(#paint33_linear)"/>
<path fill-rule="evenodd" clip-rule="evenodd" d="M317.5 418C331.583 418 343 406.583 343 392.5C343 378.417 331.583 367 317.5 367C303.417 367 292 378.417 292 392.5C292 406.583 303.417 418 317.5 418ZM317.5 414C329.374 414 339 404.374 339 392.5C339 380.626 329.374 371 317.5 371C305.626 371 296 380.626 296 392.5C296 404.374 305.626 414 317.5 414Z" fill="url(#paint34_linear)"/>
<path fill-rule="evenodd" clip-rule="evenodd" d="M317.5 477C331.583 477 343 465.583 343 451.5C343 437.417 331.583 426 317.5 426C303.417 426 292 437.417 292 451.5C292 465.583 303.417 477 317.5 477ZM317.5 473C329.374 473 339 463.374 339 451.5C339 439.626 329.374 430 317.5 430C305.626 430 296 439.626 296 451.5C296 463.374 305.626 473 317.5 473Z" fill="url(#paint35_linear)"/>
<path fill-rule="evenodd" clip-rule="evenodd" d="M317.5 536C331.583 536 343 524.583 343 510.5C343 496.417 331.583 485 317.5 485C303.417 485 292 496.417 292 510.5C292 524.583 303.417 536 317.5 536ZM317.5 532C329.374 532 339 522.374 339 510.5C339 498.626 329.374 489 317.5 489C305.626 489 296 498.626 296 510.5C296 522.374 305.626 532 317.5 532Z" fill="url(#paint36_linear)"/>
<path fill-rule="evenodd" clip-rule="evenodd" d="M125.5 64C139.583 64 151 52.5833 151 38.5C151 24.4167 139.583 13 125.5 13C111.417 13 100 24.4167 100 38.5C100 52.5833 111.417 64 125.5 64ZM125.5 60C137.374 60 147 50.3741 147 38.5C147 26.6259 137.374 17 125.5 17C113.626 17 104 26.6259 104 38.5C104 50.3741 113.626 60 125.5 60Z" fill="url(#paint37_linear)"/>
<path fill-rule="evenodd" clip-rule="evenodd" d="M125.5 123C139.583 123 151 111.583 151 97.5C151 83.4167 139.583 72 125.5 72C111.417 72 100 83.4167 100 97.5C100 111.583 111.417 123 125.5 123ZM125.5 119C137.374 119 147 109.374 147 97.5C147 85.6259 137.374 76 125.5 76C113.626 76 104 85.6259 104 97.5C104 109.374 113.626 119 125.5 119Z" fill="url(#paint38_linear)"/>
<path fill-rule="evenodd" clip-rule="evenodd" d="M125.5 182C139.583 182 151 170.583 151 156.5C151 142.417 139.583 131 125.5 131C111.417 131 100 142.417 100 156.5C100 170.583 111.417 182 125.5 182ZM125.5 178C137.374 178 147 168.374 147 156.5C147 144.626 137.374 135 125.5 135C113.626 135 104 144.626 104 156.5C104 168.374 113.626 178 125.5 178Z" fill="url(#paint39_linear)"/>
<path fill-rule="evenodd" clip-rule="evenodd" d="M125.5 241C139.583 241 151 229.583 151 215.5C151 201.417 139.583 190 125.5 190C111.417 190 100 201.417 100 215.5C100 229.583 111.417 241 125.5 241ZM125.5 237C137.374 237 147 227.374 147 215.5C147 203.626 137.374 194 125.5 194C113.626 194 104 203.626 104 215.5C104 227.374 113.626 237 125.5 237Z" fill="url(#paint40_linear)"/>
<path fill-rule="evenodd" clip-rule="evenodd" d="M125.5 300C139.583 300 151 288.583 151 274.5C151 260.417 139.583 249 125.5 249C111.417 249 100 260.417 100 274.5C100 288.583 111.417 300 125.5 300ZM125.5 296C137.374 296 147 286.374 147 274.5C147 262.626 137.374 253 125.5 253C113.626 253 104 262.626 104 274.5C104 286.374 113.626 296 125.5 296Z" fill="url(#paint41_linear)"/>
<path fill-rule="evenodd" clip-rule="evenodd" d="M125.5 359C139.583 359 151 347.583 151 333.5C151 319.417 139.583 308 125.5 308C111.417 308 100 319.417 100 333.5C100 347.583 111.417 359 125.5 359ZM125.5 355C137.374 355 147 345.374 147 333.5C147 321.626 137.374 312 125.5 312C113.626 312 104 321.626 104 333.5C104 345.374 113.626 355 125.5 355Z" fill="url(#paint42_linear)"/>
<path fill-rule="evenodd" clip-rule="evenodd" d="M125.5 418C139.583 418 151 406.583 151 392.5C151 378.417 139.583 367 125.5 367C111.417 367 100 378.417 100 392.5C100 406.583 111.417 418 125.5 418ZM125.5 414C137.374 414 147 404.374 147 392.5C147 380.626 137.374 371 125.5 371C113.626 371 104 380.626 104 392.5C104 404.374 113.626 414 125.5 414Z" fill="url(#paint43_linear)"/>
<path fill-rule="evenodd" clip-rule="evenodd" d="M125.5 477C139.583 477 151 465.583 151 451.5C151 437.417 139.583 426 125.5 426C111.417 426 100 437.417 100 451.5C100 465.583 111.417 477 125.5 477ZM125.5 473C137.374 473 147 463.374 147 451.5C147 439.626 137.374 430 125.5 430C113.626 430 104 439.626 104 451.5C104 463.374 113.626 473 125.5 473Z" fill="url(#paint44_linear)"/>
<path fill-rule="evenodd" clip-rule="evenodd" d="M125.5 536C139.583 536 151 524.583 151 510.5C151 496.417 139.583 485 125.5 485C111.417 485 100 496.417 100 510.5C100 524.583 111.417 536 125.5 536ZM125.5 532C137.374 532 147 522.374 147 510.5C147 498.626 137.374 489 125.5 489C113.626 489 104 498.626 104 510.5C104 522.374 113.626 532 125.5 532Z" fill="url(#paint45_linear)"/>
<path fill-rule="evenodd" clip-rule="evenodd" d="M509.5 64C523.583 64 535 52.5833 535 38.5C535 24.4167 523.583 13 509.5 13C495.417 13 484 24.4167 484 38.5C484 52.5833 495.417 64 509.5 64ZM509.5 60C521.374 60 531 50.3741 531 38.5C531 26.6259 521.374 17 509.5 17C497.626 17 488 26.6259 488 38.5C488 50.3741 497.626 60 509.5 60Z" fill="url(#paint46_linear)"/>
<path fill-rule="evenodd" clip-rule="evenodd" d="M509.5 123C523.583 123 535 111.583 535 97.5C535 83.4167 523.583 72 509.5 72C495.417 72 484 83.4167 484 97.5C484 111.583 495.417 123 509.5 123ZM509.5 119C521.374 119 531 109.374 531 97.5C531 85.6259 521.374 76 509.5 76C497.626 76 488 85.6259 488 97.5C488 109.374 497.626 119 509.5 119Z" fill="url(#paint47_linear)"/>
<path fill-rule="evenodd" clip-rule="evenodd" d="M509.5 182C523.583 182 535 170.583 535 156.5C535 142.417 523.583 131 509.5 131C495.417 131 484 142.417 484 156.5C484 170.583 495.417 182 509.5 182ZM509.5 178C521.374 178 531 168.374 531 156.5C531 144.626 521.374 135 509.5 135C497.626 135 488 144.626 488 156.5C488 168.374 497.626 178 509.5 178Z" fill="url(#paint48_linear)"/>
<path fill-rule="evenodd" clip-rule="evenodd" d="M509.5 241C523.583 241 535 229.583 535 215.5C535 201.417 523.583 190 509.5 190C495.417 190 484 201.417 484 215.5C484 229.583 495.417 241 509.5 241ZM509.5 237C521.374 237 531 227.374 531 215.5C531 203.626 521.374 194 509.5 194C497.626 194 488 203.626 488 215.5C488 227.374 497.626 237 509.5 237Z" fill="url(#paint49_linear)"/>
<path fill-rule="evenodd" clip-rule="evenodd" d="M509.5 300C523.583 300 535 288.583 535 274.5C535 260.417 523.583 249 509.5 249C495.417 249 484 260.417 484 274.5C484 288.583 495.417 300 509.5 300ZM509.5 296C521.374 296 531 286.374 531 274.5C531 262.626 521.374 253 509.5 253C497.626 253 488 262.626 488 274.5C488 286.374 497.626 296 509.5 296Z" fill="url(#paint50_linear)"/>
<path fill-rule="evenodd" clip-rule="evenodd" d="M509.5 359C523.583 359 535 347.583 535 333.5C535 319.417 523.583 308 509.5 308C495.417 308 484 319.417 484 333.5C484 347.583 495.417 359 509.5 359ZM509.5 355C521.374 355 531 345.374 531 333.5C531 321.626 521.374 312 509.5 312C497.626 312 488 321.626 488 333.5C488 345.374 497.626 355 509.5 355Z" fill="url(#paint51_linear)"/>
<path fill-rule="evenodd" clip-rule="evenodd" d="M509.5 418C523.583 418 535 406.583 535 392.5C535 378.417 523.583 367 509.5 367C495.417 367 484 378.417 484 392.5C484 406.583 495.417 418 509.5 418ZM509.5 414C521.374 414 531 404.374 531 392.5C531 380.626 521.374 371 509.5 371C497.626 371 488 380.626 488 392.5C488 404.374 497.626 414 509.5 414Z" fill="url(#paint52_linear)"/>
<path fill-rule="evenodd" clip-rule="evenodd" d="M509.5 477C523.583 477 535 465.583 535 451.5C535 437.417 523.583 426 509.5 426C495.417 426 484 437.417 484 451.5C484 465.583 495.417 477 509.5 477ZM509.5 473C521.374 473 531 463.374 531 451.5C531 439.626 521.374 430 509.5 430C497.626 430 488 439.626 488 451.5C488 463.374 497.626 473 509.5 473Z" fill="url(#paint53_linear)"/>
<path fill-rule="evenodd" clip-rule="evenodd" d="M509.5 536C523.583 536 535 524.583 535 510.5C535 496.417 523.583 485 509.5 485C495.417 485 484 496.417 484 510.5C484 524.583 495.417 536 509.5 536ZM509.5 532C521.374 532 531 522.374 531 510.5C531 498.626 521.374 489 509.5 489C497.626 489 488 498.626 488 510.5C488 522.374 497.626 532 509.5 532Z" fill="url(#paint54_linear)"/>
<path fill-rule="evenodd" clip-rule="evenodd" d="M253.5 64C267.583 64 279 52.5833 279 38.5C279 24.4167 267.583 13 253.5 13C239.417 13 228 24.4167 228 38.5C228 52.5833 239.417 64 253.5 64ZM253.5 60C265.374 60 275 50.3741 275 38.5C275 26.6259 265.374 17 253.5 17C241.626 17 232 26.6259 232 38.5C232 50.3741 241.626 60 253.5 60Z" fill="url(#paint55_linear)"/>
<path fill-rule="evenodd" clip-rule="evenodd" d="M253.5 123C267.583 123 279 111.583 279 97.5C279 83.4167 267.583 72 253.5 72C239.417 72 228 83.4167 228 97.5C228 111.583 239.417 123 253.5 123ZM253.5 119C265.374 119 275 109.374 275 97.5C275 85.6259 265.374 76 253.5 76C241.626 76 232 85.6259 232 97.5C232 109.374 241.626 119 253.5 119Z" fill="url(#paint56_linear)"/>
<path fill-rule="evenodd" clip-rule="evenodd" d="M253.5 182C267.583 182 279 170.583 279 156.5C279 142.417 267.583 131 253.5 131C239.417 131 228 142.417 228 156.5C228 170.583 239.417 182 253.5 182ZM253.5 178C265.374 178 275 168.374 275 156.5C275 144.626 265.374 135 253.5 135C241.626 135 232 144.626 232 156.5C232 168.374 241.626 178 253.5 178Z" fill="url(#paint57_linear)"/>
<path fill-rule="evenodd" clip-rule="evenodd" d="M253.5 241C267.583 241 279 229.583 279 215.5C279 201.417 267.583 190 253.5 190C239.417 190 228 201.417 228 215.5C228 229.583 239.417 241 253.5 241ZM253.5 237C265.374 237 275 227.374 275 215.5C275 203.626 265.374 194 253.5 194C241.626 194 232 203.626 232 215.5C232 227.374 241.626 237 253.5 237Z" fill="url(#paint58_linear)"/>
<path fill-rule="evenodd" clip-rule="evenodd" d="M253.5 300C267.583 300 279 288.583 279 274.5C279 260.417 267.583 249 253.5 249C239.417 249 228 260.417 228 274.5C228 288.583 239.417 300 253.5 300ZM253.5 296C265.374 296 275 286.374 275 274.5C275 262.626 265.374 253 253.5 253C241.626 253 232 262.626 232 274.5C232 286.374 241.626 296 253.5 296Z" fill="url(#paint59_linear)"/>
<path fill-rule="evenodd" clip-rule="evenodd" d="M253.5 359C267.583 359 279 347.583 279 333.5C279 319.417 267.583 308 253.5 308C239.417 308 228 319.417 228 333.5C228 347.583 239.417 359 253.5 359ZM253.5 355C265.374 355 275 345.374 275 333.5C275 321.626 265.374 312 253.5 312C241.626 312 232 321.626 232 333.5C232 345.374 241.626 355 253.5 355Z" fill="url(#paint60_linear)"/>
<path fill-rule="evenodd" clip-rule="evenodd" d="M253.5 418C267.583 418 279 406.583 279 392.5C279 378.417 267.583 367 253.5 367C239.417 367 228 378.417 228 392.5C228 406.583 239.417 418 253.5 418ZM253.5 414C265.374 414 275 404.374 275 392.5C275 380.626 265.374 371 253.5 371C241.626 371 232 380.626 232 392.5C232 404.374 241.626 414 253.5 414Z" fill="url(#paint61_linear)"/>
<path fill-rule="evenodd" clip-rule="evenodd" d="M253.5 477C267.583 477 279 465.583 279 451.5C279 437.417 267.583 426 253.5 426C239.417 426 228 437.417 228 451.5C228 465.583 239.417 477 253.5 477ZM253.5 473C265.374 473 275 463.374 275 451.5C275 439.626 265.374 430 253.5 430C241.626 430 232 439.626 232 451.5C232 463.374 241.626 473 253.5 473Z" fill="url(#paint62_linear)"/>
<path fill-rule="evenodd" clip-rule="evenodd" d="M253.5 536C267.583 536 279 524.583 279 510.5C279 496.417 267.583 485 253.5 485C239.417 485 228 496.417 228 510.5C228 524.583 239.417 536 253.5 536ZM253.5 532C265.374 532 275 522.374 275 510.5C275 498.626 265.374 489 253.5 489C241.626 489 232 498.626 232 510.5C232 522.374 241.626 532 253.5 532Z" fill="url(#paint63_linear)"/>
<path fill-rule="evenodd" clip-rule="evenodd" d="M637.5 64C651.583 64 663 52.5833 663 38.5C663 24.4167 651.583 13 637.5 13C623.417 13 612 24.4167 612 38.5C612 52.5833 623.417 64 637.5 64ZM637.5 60C649.374 60 659 50.3741 659 38.5C659 26.6259 649.374 17 637.5 17C625.626 17 616 26.6259 616 38.5C616 50.3741 625.626 60 637.5 60Z" fill="url(#paint64_linear)"/>
<path fill-rule="evenodd" clip-rule="evenodd" d="M637.5 123C651.583 123 663 111.583 663 97.5C663 83.4167 651.583 72 637.5 72C623.417 72 612 83.4167 612 97.5C612 111.583 623.417 123 637.5 123ZM637.5 119C649.374 119 659 109.374 659 97.5C659 85.6259 649.374 76 637.5 76C625.626 76 616 85.6259 616 97.5C616 109.374 625.626 119 637.5 119Z" fill="url(#paint65_linear)"/>
<path fill-rule="evenodd" clip-rule="evenodd" d="M637.5 182C651.583 182 663 170.583 663 156.5C663 142.417 651.583 131 637.5 131C623.417 131 612 142.417 612 156.5C612 170.583 623.417 182 637.5 182ZM637.5 178C649.374 178 659 168.374 659 156.5C659 144.626 649.374 135 637.5 135C625.626 135 616 144.626 616 156.5C616 168.374 625.626 178 637.5 178Z" fill="url(#paint66_linear)"/>
<path fill-rule="evenodd" clip-rule="evenodd" d="M637.5 241C651.583 241 663 229.583 663 215.5C663 201.417 651.583 190 637.5 190C623.417 190 612 201.417 612 215.5C612 229.583 623.417 241 637.5 241ZM637.5 237C649.374 237 659 227.374 659 215.5C659 203.626 649.374 194 637.5 194C625.626 194 616 203.626 616 215.5C616 227.374 625.626 237 637.5 237Z" fill="url(#paint67_linear)"/>
<path fill-rule="evenodd" clip-rule="evenodd" d="M637.5 300C651.583 300 663 288.583 663 274.5C663 260.417 651.583 249 637.5 249C623.417 249 612 260.417 612 274.5C612 288.583 623.417 300 637.5 300ZM637.5 296C649.374 296 659 286.374 659 274.5C659 262.626 649.374 253 637.5 253C625.626 253 616 262.626 616 274.5C616 286.374 625.626 296 637.5 296Z" fill="url(#paint68_linear)"/>
<path fill-rule="evenodd" clip-rule="evenodd" d="M637.5 359C651.583 359 663 347.583 663 333.5C663 319.417 651.583 308 637.5 308C623.417 308 612 319.417 612 333.5C612 347.583 623.417 359 637.5 359ZM637.5 355C649.374 355 659 345.374 659 333.5C659 321.626 649.374 312 637.5 312C625.626 312 616 321.626 616 333.5C616 345.374 625.626 355 637.5 355Z" fill="url(#paint69_linear)"/>
<path fill-rule="evenodd" clip-rule="evenodd" d="M637.5 418C651.583 418 663 406.583 663 392.5C663 378.417 651.583 367 637.5 367C623.417 367 612 378.417 612 392.5C612 406.583 623.417 418 637.5 418ZM637.5 414C649.374 414 659 404.374 659 392.5C659 380.626 649.374 371 637.5 371C625.626 371 616 380.626 616 392.5C616 404.374 625.626 414 637.5 414Z" fill="url(#paint70_linear)"/>
<path fill-rule="evenodd" clip-rule="evenodd" d="M637.5 477C651.583 477 663 465.583 663 451.5C663 437.417 651.583 426 637.5 426C623.417 426 612 437.417 612 451.5C612 465.583 623.417 477 637.5 477ZM637.5 473C649.374 473 659 463.374 659 451.5C659 439.626 649.374 430 637.5 430C625.626 430 616 439.626 616 451.5C616 463.374 625.626 473 637.5 473Z" fill="url(#paint71_linear)"/>
<path fill-rule="evenodd" clip-rule="evenodd" d="M637.5 536C651.583 536 663 524.583 663 510.5C663 496.417 651.583 485 637.5 485C623.417 485 612 496.417 612 510.5C612 524.583 623.417 536 637.5 536ZM637.5 532C649.374 532 659 522.374 659 510.5C659 498.626 649.374 489 637.5 489C625.626 489 616 498.626 616 510.5C616 522.374 625.626 532 637.5 532Z" fill="url(#paint72_linear)"/>
<path fill-rule="evenodd" clip-rule="evenodd" d="M61.5 64C75.5833 64 87 52.5833 87 38.5C87 24.4167 75.5833 13 61.5 13C47.4167 13 36 24.4167 36 38.5C36 52.5833 47.4167 64 61.5 64ZM61.5 60C73.3741 60 83 50.3741 83 38.5C83 26.6259 73.3741 17 61.5 17C49.6259 17 40 26.6259 40 38.5C40 50.3741 49.6259 60 61.5 60Z" fill="url(#paint73_linear)"/>
<path fill-rule="evenodd" clip-rule="evenodd" d="M61.5 123C75.5833 123 87 111.583 87 97.5C87 83.4167 75.5833 72 61.5 72C47.4167 72 36 83.4167 36 97.5C36 111.583 47.4167 123 61.5 123ZM61.5 119C73.3741 119 83 109.374 83 97.5C83 85.6259 73.3741 76 61.5 76C49.6259 76 40 85.6259 40 97.5C40 109.374 49.6259 119 61.5 119Z" fill="url(#paint74_linear)"/>
<path fill-rule="evenodd" clip-rule="evenodd" d="M61.5 182C75.5833 182 87 170.583 87 156.5C87 142.417 75.5833 131 61.5 131C47.4167 131 36 142.417 36 156.5C36 170.583 47.4167 182 61.5 182ZM61.5 178C73.3741 178 83 168.374 83 156.5C83 144.626 73.3741 135 61.5 135C49.6259 135 40 144.626 40 156.5C40 168.374 49.6259 178 61.5 178Z" fill="url(#paint75_linear)"/>
<path fill-rule="evenodd" clip-rule="evenodd" d="M61.5 241C75.5833 241 87 229.583 87 215.5C87 201.417 75.5833 190 61.5 190C47.4167 190 36 201.417 36 215.5C36 229.583 47.4167 241 61.5 241ZM61.5 237C73.3741 237 83 227.374 83 215.5C83 203.626 73.3741 194 61.5 194C49.6259 194 40 203.626 40 215.5C40 227.374 49.6259 237 61.5 237Z" fill="url(#paint76_linear)"/>
<path fill-rule="evenodd" clip-rule="evenodd" d="M61.5 300C75.5833 300 87 288.583 87 274.5C87 260.417 75.5833 249 61.5 249C47.4167 249 36 260.417 36 274.5C36 288.583 47.4167 300 61.5 300ZM61.5 296C73.3741 296 83 286.374 83 274.5C83 262.626 73.3741 253 61.5 253C49.6259 253 40 262.626 40 274.5C40 286.374 49.6259 296 61.5 296Z" fill="url(#paint77_linear)"/>
<path fill-rule="evenodd" clip-rule="evenodd" d="M61.5 359C75.5833 359 87 347.583 87 333.5C87 319.417 75.5833 308 61.5 308C47.4167 308 36 319.417 36 333.5C36 347.583 47.4167 359 61.5 359ZM61.5 355C73.3741 355 83 345.374 83 333.5C83 321.626 73.3741 312 61.5 312C49.6259 312 40 321.626 40 333.5C40 345.374 49.6259 355 61.5 355Z" fill="url(#paint78_linear)"/>
<path fill-rule="evenodd" clip-rule="evenodd" d="M61.5 418C75.5833 418 87 406.583 87 392.5C87 378.417 75.5833 367 61.5 367C47.4167 367 36 378.417 36 392.5C36 406.583 47.4167 418 61.5 418ZM61.5 414C73.3741 414 83 404.374 83 392.5C83 380.626 73.3741 371 61.5 371C49.6259 371 40 380.626 40 392.5C40 404.374 49.6259 414 61.5 414Z" fill="url(#paint79_linear)"/>
<path fill-rule="evenodd" clip-rule="evenodd" d="M61.5 477C75.5833 477 87 465.583 87 451.5C87 437.417 75.5833 426 61.5 426C47.4167 426 36 437.417 36 451.5C36 465.583 47.4167 477 61.5 477ZM61.5 473C73.3741 473 83 463.374 83 451.5C83 439.626 73.3741 430 61.5 430C49.6259 430 40 439.626 40 451.5C40 463.374 49.6259 473 61.5 473Z" fill="url(#paint80_linear)"/>
<path fill-rule="evenodd" clip-rule="evenodd" d="M61.5 536C75.5833 536 87 524.583 87 510.5C87 496.417 75.5833 485 61.5 485C47.4167 485 36 496.417 36 510.5C36 524.583 47.4167 536 61.5 536ZM61.5 532C73.3741 532 83 522.374 83 510.5C83 498.626 73.3741 489 61.5 489C49.6259 489 40 498.626 40 510.5C40 522.374 49.6259 532 61.5 532Z" fill="url(#paint81_linear)"/>
<path fill-rule="evenodd" clip-rule="evenodd" d="M445.5 64C459.583 64 471 52.5833 471 38.5C471 24.4167 459.583 13 445.5 13C431.417 13 420 24.4167 420 38.5C420 52.5833 431.417 64 445.5 64ZM445.5 60C457.374 60 467 50.3741 467 38.5C467 26.6259 457.374 17 445.5 17C433.626 17 424 26.6259 424 38.5C424 50.3741 433.626 60 445.5 60Z" fill="url(#paint82_linear)"/>
<path fill-rule="evenodd" clip-rule="evenodd" d="M445.5 123C459.583 123 471 111.583 471 97.5C471 83.4167 459.583 72 445.5 72C431.417 72 420 83.4167 420 97.5C420 111.583 431.417 123 445.5 123ZM445.5 119C457.374 119 467 109.374 467 97.5C467 85.6259 457.374 76 445.5 76C433.626 76 424 85.6259 424 97.5C424 109.374 433.626 119 445.5 119Z" fill="url(#paint83_linear)"/>
<path fill-rule="evenodd" clip-rule="evenodd" d="M445.5 182C459.583 182 471 170.583 471 156.5C471 142.417 459.583 131 445.5 131C431.417 131 420 142.417 420 156.5C420 170.583 431.417 182 445.5 182ZM445.5 178C457.374 178 467 168.374 467 156.5C467 144.626 457.374 135 445.5 135C433.626 135 424 144.626 424 156.5C424 168.374 433.626 178 445.5 178Z" fill="url(#paint84_linear)"/>
<path fill-rule="evenodd" clip-rule="evenodd" d="M445.5 241C459.583 241 471 229.583 471 215.5C471 201.417 459.583 190 445.5 190C431.417 190 420 201.417 420 215.5C420 229.583 431.417 241 445.5 241ZM445.5 237C457.374 237 467 227.374 467 215.5C467 203.626 457.374 194 445.5 194C433.626 194 424 203.626 424 215.5C424 227.374 433.626 237 445.5 237Z" fill="url(#paint85_linear)"/>
<path fill-rule="evenodd" clip-rule="evenodd" d="M445.5 300C459.583 300 471 288.583 471 274.5C471 260.417 459.583 249 445.5 249C431.417 249 420 260.417 420 274.5C420 288.583 431.417 300 445.5 300ZM445.5 296C457.374 296 467 286.374 467 274.5C467 262.626 457.374 253 445.5 253C433.626 253 424 262.626 424 274.5C424 286.374 433.626 296 445.5 296Z" fill="url(#paint86_linear)"/>
<path fill-rule="evenodd" clip-rule="evenodd" d="M445.5 359C459.583 359 471 347.583 471 333.5C471 319.417 459.583 308 445.5 308C431.417 308 420 319.417 420 333.5C420 347.583 431.417 359 445.5 359ZM445.5 355C457.374 355 467 345.374 467 333.5C467 321.626 457.374 312 445.5 312C433.626 312 424 321.626 424 333.5C424 345.374 433.626 355 445.5 355Z" fill="url(#paint87_linear)"/>
<path fill-rule="evenodd" clip-rule="evenodd" d="M445.5 418C459.583 418 471 406.583 471 392.5C471 378.417 459.583 367 445.5 367C431.417 367 420 378.417 420 392.5C420 406.583 431.417 418 445.5 418ZM445.5 414C457.374 414 467 404.374 467 392.5C467 380.626 457.374 371 445.5 371C433.626 371 424 380.626 424 392.5C424 404.374 433.626 414 445.5 414Z" fill="url(#paint88_linear)"/>
<path fill-rule="evenodd" clip-rule="evenodd" d="M445.5 477C459.583 477 471 465.583 471 451.5C471 437.417 459.583 426 445.5 426C431.417 426 420 437.417 420 451.5C420 465.583 431.417 477 445.5 477ZM445.5 473C457.374 473 467 463.374 467 451.5C467 439.626 457.374 430 445.5 430C433.626 430 424 439.626 424 451.5C424 463.374 433.626 473 445.5 473Z" fill="url(#paint89_linear)"/>
<path fill-rule="evenodd" clip-rule="evenodd" d="M445.5 536C459.583 536 471 524.583 471 510.5C471 496.417 459.583 485 445.5 485C431.417 485 420 496.417 420 510.5C420 524.583 431.417 536 445.5 536ZM445.5 532C457.374 532 467 522.374 467 510.5C467 498.626 457.374 489 445.5 489C433.626 489 424 498.626 424 510.5C424 522.374 433.626 532 445.5 532Z" fill="url(#paint90_linear)"/>
</g>
<defs>
<filter id="filter0_d" x="32" y="11" width="635" height="531" filterUnits="userSpaceOnUse" color-interpolation-filters="sRGB">
<feFlood flood-opacity="0" result="BackgroundImageFix"/>
<feColorMatrix in="SourceAlpha" type="matrix" values="0 0 0 0 0 0 0 0 0 0 0 0 0 0 0 0 0 0 127 0"/>
<feOffset dy="2"/>
<feGaussianBlur stdDeviation="2"/>
<feColorMatrix type="matrix" values="0 0 0 0 0 0 0 0 0 0 0 0 0 0 0 0 0 0 0.25 0"/>
<feBlend mode="normal" in2="BackgroundImageFix" result="effect1_dropShadow"/>
<feBlend mode="normal" in="SourceGraphic" in2="effect1_dropShadow" result="shape"/>
</filter>
<linearGradient id="paint0_linear" x1="350" y1="0" x2="350" y2="550" gradientUnits="userSpaceOnUse">
<stop stop-color="#006ACC" stop-opacity="0.73"/>
<stop offset="1" stop-color="#015AAC"/>
</linearGradient>
<linearGradient id="paint1_linear" x1="381.5" y1="13" x2="381.5" y2="64" gradientUnits="userSpaceOnUse">
<stop stop-color="#7BC0FF"/>
<stop offset="0.307292" stop-color="#288EEC"/>
</linearGradient>
<linearGradient id="paint2_linear" x1="381.5" y1="72" x2="381.5" y2="123" gradientUnits="userSpaceOnUse">
<stop stop-color="#7BC0FF"/>
<stop offset="0.307292" stop-color="#288EEC"/>
</linearGradient>
<linearGradient id="paint3_linear" x1="381.5" y1="131" x2="381.5" y2="182" gradientUnits="userSpaceOnUse">
<stop stop-color="#7BC0FF"/>
<stop offset="0.307292" stop-color="#288EEC"/>
</linearGradient>
<linearGradient id="paint4_linear" x1="381.5" y1="190" x2="381.5" y2="241" gradientUnits="userSpaceOnUse">
<stop stop-color="#7BC0FF"/>
<stop offset="0.307292" stop-color="#288EEC"/>
</linearGradient>
<linearGradient id="paint5_linear" x1="381.5" y1="249" x2="381.5" y2="300" gradientUnits="userSpaceOnUse">
<stop stop-color="#7BC0FF"/>
<stop offset="0.307292" stop-color="#288EEC"/>
</linearGradient>
<linearGradient id="paint6_linear" x1="381.5" y1="308" x2="381.5" y2="359" gradientUnits="userSpaceOnUse">
<stop stop-color="#7BC0FF"/>
<stop offset="0.307292" stop-color="#288EEC"/>
</linearGradient>
<linearGradient id="paint7_linear" x1="381.5" y1="367" x2="381.5" y2="418" gradientUnits="userSpaceOnUse">
<stop stop-color="#7BC0FF"/>
<stop offset="0.307292" stop-color="#288EEC"/>
</linearGradient>
<linearGradient id="paint8_linear" x1="381.5" y1="426" x2="381.5" y2="477" gradientUnits="userSpaceOnUse">
<stop stop-color="#7BC0FF"/>
<stop offset="0.307292" stop-color="#288EEC"/>
</linearGradient>
<linearGradient id="paint9_linear" x1="381.5" y1="485" x2="381.5" y2="536" gradientUnits="userSpaceOnUse">
<stop stop-color="#7BC0FF"/>
<stop offset="0.307292" stop-color="#288EEC"/>
</linearGradient>
<linearGradient id="paint10_linear" x1="189.5" y1="13" x2="189.5" y2="64" gradientUnits="userSpaceOnUse">
<stop stop-color="#7BC0FF"/>
<stop offset="0.307292" stop-color="#288EEC"/>
</linearGradient>
<linearGradient id="paint11_linear" x1="189.5" y1="72" x2="189.5" y2="123" gradientUnits="userSpaceOnUse">
<stop stop-color="#7BC0FF"/>
<stop offset="0.307292" stop-color="#288EEC"/>
</linearGradient>
<linearGradient id="paint12_linear" x1="189.5" y1="131" x2="189.5" y2="182" gradientUnits="userSpaceOnUse">
<stop stop-color="#7BC0FF"/>
<stop offset="0.307292" stop-color="#288EEC"/>
</linearGradient>
<linearGradient id="paint13_linear" x1="189.5" y1="190" x2="189.5" y2="241" gradientUnits="userSpaceOnUse">
<stop stop-color="#7BC0FF"/>
<stop offset="0.307292" stop-color="#288EEC"/>
</linearGradient>
<linearGradient id="paint14_linear" x1="189.5" y1="249" x2="189.5" y2="300" gradientUnits="userSpaceOnUse">
<stop stop-color="#7BC0FF"/>
<stop offset="0.307292" stop-color="#288EEC"/>
</linearGradient>
<linearGradient id="paint15_linear" x1="189.5" y1="308" x2="189.5" y2="359" gradientUnits="userSpaceOnUse">
<stop stop-color="#7BC0FF"/>
<stop offset="0.307292" stop-color="#288EEC"/>
</linearGradient>
<linearGradient id="paint16_linear" x1="189.5" y1="367" x2="189.5" y2="418" gradientUnits="userSpaceOnUse">
<stop stop-color="#7BC0FF"/>
<stop offset="0.307292" stop-color="#288EEC"/>
</linearGradient>
<linearGradient id="paint17_linear" x1="189.5" y1="426" x2="189.5" y2="477" gradientUnits="userSpaceOnUse">
<stop stop-color="#7BC0FF"/>
<stop offset="0.307292" stop-color="#288EEC"/>
</linearGradient>
<linearGradient id="paint18_linear" x1="189.5" y1="485" x2="189.5" y2="536" gradientUnits="userSpaceOnUse">
<stop stop-color="#7BC0FF"/>
<stop offset="0.307292" stop-color="#288EEC"/>
</linearGradient>
<linearGradient id="paint19_linear" x1="573.5" y1="13" x2="573.5" y2="64" gradientUnits="userSpaceOnUse">
<stop stop-color="#7BC0FF"/>
<stop offset="0.307292" stop-color="#288EEC"/>
</linearGradient>
<linearGradient id="paint20_linear" x1="573.5" y1="72" x2="573.5" y2="123" gradientUnits="userSpaceOnUse">
<stop stop-color="#7BC0FF"/>
<stop offset="0.307292" stop-color="#288EEC"/>
</linearGradient>
<linearGradient id="paint21_linear" x1="573.5" y1="131" x2="573.5" y2="182" gradientUnits="userSpaceOnUse">
<stop stop-color="#7BC0FF"/>
<stop offset="0.307292" stop-color="#288EEC"/>
</linearGradient>
<linearGradient id="paint22_linear" x1="573.5" y1="190" x2="573.5" y2="241" gradientUnits="userSpaceOnUse">
<stop stop-color="#7BC0FF"/>
<stop offset="0.307292" stop-color="#288EEC"/>
</linearGradient>
<linearGradient id="paint23_linear" x1="573.5" y1="249" x2="573.5" y2="300" gradientUnits="userSpaceOnUse">
<stop stop-color="#7BC0FF"/>
<stop offset="0.307292" stop-color="#288EEC"/>
</linearGradient>
<linearGradient id="paint24_linear" x1="573.5" y1="308" x2="573.5" y2="359" gradientUnits="userSpaceOnUse">
<stop stop-color="#7BC0FF"/>
<stop offset="0.307292" stop-color="#288EEC"/>
</linearGradient>
<linearGradient id="paint25_linear" x1="573.5" y1="367" x2="573.5" y2="418" gradientUnits="userSpaceOnUse">
<stop stop-color="#7BC0FF"/>
<stop offset="0.307292" stop-color="#288EEC"/>
</linearGradient>
<linearGradient id="paint26_linear" x1="573.5" y1="426" x2="573.5" y2="477" gradientUnits="userSpaceOnUse">
<stop stop-color="#7BC0FF"/>
<stop offset="0.307292" stop-color="#288EEC"/>
</linearGradient>
<linearGradient id="paint27_linear" x1="573.5" y1="485" x2="573.5" y2="536" gradientUnits="userSpaceOnUse">
<stop stop-color="#7BC0FF"/>
<stop offset="0.307292" stop-color="#288EEC"/>
</linearGradient>
<linearGradient id="paint28_linear" x1="317.5" y1="13" x2="317.5" y2="64" gradientUnits="userSpaceOnUse">
<stop stop-color="#7BC0FF"/>
<stop offset="0.307292" stop-color="#288EEC"/>
</linearGradient>
<linearGradient id="paint29_linear" x1="317.5" y1="72" x2="317.5" y2="123" gradientUnits="userSpaceOnUse">
<stop stop-color="#7BC0FF"/>
<stop offset="0.307292" stop-color="#288EEC"/>
</linearGradient>
<linearGradient id="paint30_linear" x1="317.5" y1="131" x2="317.5" y2="182" gradientUnits="userSpaceOnUse">
<stop stop-color="#7BC0FF"/>
<stop offset="0.307292" stop-color="#288EEC"/>
</linearGradient>
<linearGradient id="paint31_linear" x1="317.5" y1="190" x2="317.5" y2="241" gradientUnits="userSpaceOnUse">
<stop stop-color="#7BC0FF"/>
<stop offset="0.307292" stop-color="#288EEC"/>
</linearGradient>
<linearGradient id="paint32_linear" x1="317.5" y1="249" x2="317.5" y2="300" gradientUnits="userSpaceOnUse">
<stop stop-color="#7BC0FF"/>
<stop offset="0.307292" stop-color="#288EEC"/>
</linearGradient>
<linearGradient id="paint33_linear" x1="317.5" y1="308" x2="317.5" y2="359" gradientUnits="userSpaceOnUse">
<stop stop-color="#7BC0FF"/>
<stop offset="0.307292" stop-color="#288EEC"/>
</linearGradient>
<linearGradient id="paint34_linear" x1="317.5" y1="367" x2="317.5" y2="418" gradientUnits="userSpaceOnUse">
<stop stop-color="#7BC0FF"/>
<stop offset="0.307292" stop-color="#288EEC"/>
</linearGradient>
<linearGradient id="paint35_linear" x1="317.5" y1="426" x2="317.5" y2="477" gradientUnits="userSpaceOnUse">
<stop stop-color="#7BC0FF"/>
<stop offset="0.307292" stop-color="#288EEC"/>
</linearGradient>
<linearGradient id="paint36_linear" x1="317.5" y1="485" x2="317.5" y2="536" gradientUnits="userSpaceOnUse">
<stop stop-color="#7BC0FF"/>
<stop offset="0.307292" stop-color="#288EEC"/>
</linearGradient>
<linearGradient id="paint37_linear" x1="125.5" y1="13" x2="125.5" y2="64" gradientUnits="userSpaceOnUse">
<stop stop-color="#7BC0FF"/>
<stop offset="0.307292" stop-color="#288EEC"/>
</linearGradient>
<linearGradient id="paint38_linear" x1="125.5" y1="72" x2="125.5" y2="123" gradientUnits="userSpaceOnUse">
<stop stop-color="#7BC0FF"/>
<stop offset="0.307292" stop-color="#288EEC"/>
</linearGradient>
<linearGradient id="paint39_linear" x1="125.5" y1="131" x2="125.5" y2="182" gradientUnits="userSpaceOnUse">
<stop stop-color="#7BC0FF"/>
<stop offset="0.307292" stop-color="#288EEC"/>
</linearGradient>
<linearGradient id="paint40_linear" x1="125.5" y1="190" x2="125.5" y2="241" gradientUnits="userSpaceOnUse">
<stop stop-color="#7BC0FF"/>
<stop offset="0.307292" stop-color="#288EEC"/>
</linearGradient>
<linearGradient id="paint41_linear" x1="125.5" y1="249" x2="125.5" y2="300" gradientUnits="userSpaceOnUse">
<stop stop-color="#7BC0FF"/>
<stop offset="0.307292" stop-color="#288EEC"/>
</linearGradient>
<linearGradient id="paint42_linear" x1="125.5" y1="308" x2="125.5" y2="359" gradientUnits="userSpaceOnUse">
<stop stop-color="#7BC0FF"/>
<stop offset="0.307292" stop-color="#288EEC"/>
</linearGradient>
<linearGradient id="paint43_linear" x1="125.5" y1="367" x2="125.5" y2="418" gradientUnits="userSpaceOnUse">
<stop stop-color="#7BC0FF"/>
<stop offset="0.307292" stop-color="#288EEC"/>
</linearGradient>
<linearGradient id="paint44_linear" x1="125.5" y1="426" x2="125.5" y2="477" gradientUnits="userSpaceOnUse">
<stop stop-color="#7BC0FF"/>
<stop offset="0.307292" stop-color="#288EEC"/>
</linearGradient>
<linearGradient id="paint45_linear" x1="125.5" y1="485" x2="125.5" y2="536" gradientUnits="userSpaceOnUse">
<stop stop-color="#7BC0FF"/>
<stop offset="0.307292" stop-color="#288EEC"/>
</linearGradient>
<linearGradient id="paint46_linear" x1="509.5" y1="13" x2="509.5" y2="64" gradientUnits="userSpaceOnUse">
<stop stop-color="#7BC0FF"/>
<stop offset="0.307292" stop-color="#288EEC"/>
</linearGradient>
<linearGradient id="paint47_linear" x1="509.5" y1="72" x2="509.5" y2="123" gradientUnits="userSpaceOnUse">
<stop stop-color="#7BC0FF"/>
<stop offset="0.307292" stop-color="#288EEC"/>
</linearGradient>
<linearGradient id="paint48_linear" x1="509.5" y1="131" x2="509.5" y2="182" gradientUnits="userSpaceOnUse">
<stop stop-color="#7BC0FF"/>
<stop offset="0.307292" stop-color="#288EEC"/>
</linearGradient>
<linearGradient id="paint49_linear" x1="509.5" y1="190" x2="509.5" y2="241" gradientUnits="userSpaceOnUse">
<stop stop-color="#7BC0FF"/>
<stop offset="0.307292" stop-color="#288EEC"/>
</linearGradient>
<linearGradient id="paint50_linear" x1="509.5" y1="249" x2="509.5" y2="300" gradientUnits="userSpaceOnUse">
<stop stop-color="#7BC0FF"/>
<stop offset="0.307292" stop-color="#288EEC"/>
</linearGradient>
<linearGradient id="paint51_linear" x1="509.5" y1="308" x2="509.5" y2="359" gradientUnits="userSpaceOnUse">
<stop stop-color="#7BC0FF"/>
<stop offset="0.307292" stop-color="#288EEC"/>
</linearGradient>
<linearGradient id="paint52_linear" x1="509.5" y1="367" x2="509.5" y2="418" gradientUnits="userSpaceOnUse">
<stop stop-color="#7BC0FF"/>
<stop offset="0.307292" stop-color="#288EEC"/>
</linearGradient>
<linearGradient id="paint53_linear" x1="509.5" y1="426" x2="509.5" y2="477" gradientUnits="userSpaceOnUse">
<stop stop-color="#7BC0FF"/>
<stop offset="0.307292" stop-color="#288EEC"/>
</linearGradient>
<linearGradient id="paint54_linear" x1="509.5" y1="485" x2="509.5" y2="536" gradientUnits="userSpaceOnUse">
<stop stop-color="#7BC0FF"/>
<stop offset="0.307292" stop-color="#288EEC"/>
</linearGradient>
<linearGradient id="paint55_linear" x1="253.5" y1="13" x2="253.5" y2="64" gradientUnits="userSpaceOnUse">
<stop stop-color="#7BC0FF"/>
<stop offset="0.307292" stop-color="#288EEC"/>
</linearGradient>
<linearGradient id="paint56_linear" x1="253.5" y1="72" x2="253.5" y2="123" gradientUnits="userSpaceOnUse">
<stop stop-color="#7BC0FF"/>
<stop offset="0.307292" stop-color="#288EEC"/>
</linearGradient>
<linearGradient id="paint57_linear" x1="253.5" y1="131" x2="253.5" y2="182" gradientUnits="userSpaceOnUse">
<stop stop-color="#7BC0FF"/>
<stop offset="0.307292" stop-color="#288EEC"/>
</linearGradient>
<linearGradient id="paint58_linear" x1="253.5" y1="190" x2="253.5" y2="241" gradientUnits="userSpaceOnUse">
<stop stop-color="#7BC0FF"/>
<stop offset="0.307292" stop-color="#288EEC"/>
</linearGradient>
<linearGradient id="paint59_linear" x1="253.5" y1="249" x2="253.5" y2="300" gradientUnits="userSpaceOnUse">
<stop stop-color="#7BC0FF"/>
<stop offset="0.307292" stop-color="#288EEC"/>
</linearGradient>
<linearGradient id="paint60_linear" x1="253.5" y1="308" x2="253.5" y2="359" gradientUnits="userSpaceOnUse">
<stop stop-color="#7BC0FF"/>
<stop offset="0.307292" stop-color="#288EEC"/>
</linearGradient>
<linearGradient id="paint61_linear" x1="253.5" y1="367" x2="253.5" y2="418" gradientUnits="userSpaceOnUse">
<stop stop-color="#7BC0FF"/>
<stop offset="0.307292" stop-color="#288EEC"/>
</linearGradient>
<linearGradient id="paint62_linear" x1="253.5" y1="426" x2="253.5" y2="477" gradientUnits="userSpaceOnUse">
<stop stop-color="#7BC0FF"/>
<stop offset="0.307292" stop-color="#288EEC"/>
</linearGradient>
<linearGradient id="paint63_linear" x1="253.5" y1="485" x2="253.5" y2="536" gradientUnits="userSpaceOnUse">
<stop stop-color="#7BC0FF"/>
<stop offset="0.307292" stop-color="#288EEC"/>
</linearGradient>
<linearGradient id="paint64_linear" x1="637.5" y1="13" x2="637.5" y2="64" gradientUnits="userSpaceOnUse">
<stop stop-color="#7BC0FF"/>
<stop offset="0.307292" stop-color="#288EEC"/>
</linearGradient>
<linearGradient id="paint65_linear" x1="637.5" y1="72" x2="637.5" y2="123" gradientUnits="userSpaceOnUse">
<stop stop-color="#7BC0FF"/>
<stop offset="0.307292" stop-color="#288EEC"/>
</linearGradient>
<linearGradient id="paint66_linear" x1="637.5" y1="131" x2="637.5" y2="182" gradientUnits="userSpaceOnUse">
<stop stop-color="#7BC0FF"/>
<stop offset="0.307292" stop-color="#288EEC"/>
</linearGradient>
<linearGradient id="paint67_linear" x1="637.5" y1="190" x2="637.5" y2="241" gradientUnits="userSpaceOnUse">
<stop stop-color="#7BC0FF"/>
<stop offset="0.307292" stop-color="#288EEC"/>
</linearGradient>
<linearGradient id="paint68_linear" x1="637.5" y1="249" x2="637.5" y2="300" gradientUnits="userSpaceOnUse">
<stop stop-color="#7BC0FF"/>
<stop offset="0.307292" stop-color="#288EEC"/>
</linearGradient>
<linearGradient id="paint69_linear" x1="637.5" y1="308" x2="637.5" y2="359" gradientUnits="userSpaceOnUse">
<stop stop-color="#7BC0FF"/>
<stop offset="0.307292" stop-color="#288EEC"/>
</linearGradient>
<linearGradient id="paint70_linear" x1="637.5" y1="367" x2="637.5" y2="418" gradientUnits="userSpaceOnUse">
<stop stop-color="#7BC0FF"/>
<stop offset="0.307292" stop-color="#288EEC"/>
</linearGradient>
<linearGradient id="paint71_linear" x1="637.5" y1="426" x2="637.5" y2="477" gradientUnits="userSpaceOnUse">
<stop stop-color="#7BC0FF"/>
<stop offset="0.307292" stop-color="#288EEC"/>
</linearGradient>
<linearGradient id="paint72_linear" x1="637.5" y1="485" x2="637.5" y2="536" gradientUnits="userSpaceOnUse">
<stop stop-color="#7BC0FF"/>
<stop offset="0.307292" stop-color="#288EEC"/>
</linearGradient>
<linearGradient id="paint73_linear" x1="61.5" y1="13" x2="61.5" y2="64" gradientUnits="userSpaceOnUse">
<stop stop-color="#7BC0FF"/>
<stop offset="0.307292" stop-color="#288EEC"/>
</linearGradient>
<linearGradient id="paint74_linear" x1="61.5" y1="72" x2="61.5" y2="123" gradientUnits="userSpaceOnUse">
<stop stop-color="#7BC0FF"/>
<stop offset="0.307292" stop-color="#288EEC"/>
</linearGradient>
<linearGradient id="paint75_linear" x1="61.5" y1="131" x2="61.5" y2="182" gradientUnits="userSpaceOnUse">
<stop stop-color="#7BC0FF"/>
<stop offset="0.307292" stop-color="#288EEC"/>
</linearGradient>
<linearGradient id="paint76_linear" x1="61.5" y1="190" x2="61.5" y2="241" gradientUnits="userSpaceOnUse">
<stop stop-color="#7BC0FF"/>
<stop offset="0.307292" stop-color="#288EEC"/>
</linearGradient>
<linearGradient id="paint77_linear" x1="61.5" y1="249" x2="61.5" y2="300" gradientUnits="userSpaceOnUse">
<stop stop-color="#7BC0FF"/>
<stop offset="0.307292" stop-color="#288EEC"/>
</linearGradient>
<linearGradient id="paint78_linear" x1="61.5" y1="308" x2="61.5" y2="359" gradientUnits="userSpaceOnUse">
<stop stop-color="#7BC0FF"/>
<stop offset="0.307292" stop-color="#288EEC"/>
</linearGradient>
<linearGradient id="paint79_linear" x1="61.5" y1="367" x2="61.5" y2="418" gradientUnits="userSpaceOnUse">
<stop stop-color="#7BC0FF"/>
<stop offset="0.307292" stop-color="#288EEC"/>
</linearGradient>
<linearGradient id="paint80_linear" x1="61.5" y1="426" x2="61.5" y2="477" gradientUnits="userSpaceOnUse">
<stop stop-color="#7BC0FF"/>
<stop offset="0.307292" stop-color="#288EEC"/>
</linearGradient>
<linearGradient id="paint81_linear" x1="61.5" y1="485" x2="61.5" y2="536" gradientUnits="userSpaceOnUse">
<stop stop-color="#7BC0FF"/>
<stop offset="0.307292" stop-color="#288EEC"/>
</linearGradient>
<linearGradient id="paint82_linear" x1="445.5" y1="13" x2="445.5" y2="64" gradientUnits="userSpaceOnUse">
<stop stop-color="#7BC0FF"/>
<stop offset="0.307292" stop-color="#288EEC"/>
</linearGradient>
<linearGradient id="paint83_linear" x1="445.5" y1="72" x2="445.5" y2="123" gradientUnits="userSpaceOnUse">
<stop stop-color="#7BC0FF"/>
<stop offset="0.307292" stop-color="#288EEC"/>
</linearGradient>
<linearGradient id="paint84_linear" x1="445.5" y1="131" x2="445.5" y2="182" gradientUnits="userSpaceOnUse">
<stop stop-color="#7BC0FF"/>
<stop offset="0.307292" stop-color="#288EEC"/>
</linearGradient>
<linearGradient id="paint85_linear" x1="445.5" y1="190" x2="445.5" y2="241" gradientUnits="userSpaceOnUse">
<stop stop-color="#7BC0FF"/>
<stop offset="0.307292" stop-color="#288EEC"/>
</linearGradient>
<linearGradient id="paint86_linear" x1="445.5" y1="249" x2="445.5" y2="300" gradientUnits="userSpaceOnUse">
<stop stop-color="#7BC0FF"/>
<stop offset="0.307292" stop-color="#288EEC"/>
</linearGradient>
<linearGradient id="paint87_linear" x1="445.5" y1="308" x2="445.5" y2="359" gradientUnits="userSpaceOnUse">
<stop stop-color="#7BC0FF"/>
<stop offset="0.307292" stop-color="#288EEC"/>
</linearGradient>
<linearGradient id="paint88_linear" x1="445.5" y1="367" x2="445.5" y2="418" gradientUnits="userSpaceOnUse">
<stop stop-color="#7BC0FF"/>
<stop offset="0.307292" stop-color="#288EEC"/>
</linearGradient>
<linearGradient id="paint89_linear" x1="445.5" y1="426" x2="445.5" y2="477" gradientUnits="userSpaceOnUse">
<stop stop-color="#7BC0FF"/>
<stop offset="0.307292" stop-color="#288EEC"/>
</linearGradient>
<linearGradient id="paint90_linear" x1="445.5" y1="485" x2="445.5" y2="536" gradientUnits="userSpaceOnUse">
<stop stop-color="#7BC0FF"/>
<stop offset="0.307292" stop-color="#288EEC"/>
</linearGradient>
</defs>
</svg>
