<svg width="700" height="500" viewBox="0 0 700 500" fill="none" xmlns="http://www.w3.org/2000/svg">
<path fill-rule="evenodd" clip-rule="evenodd" d="M0 20C0 8.95432 8.95431 0 20 0H680C691.046 0 700 8.9543 700 20V480C700 491.046 691.046 500 680 500H20C8.9543 500 0 491.046 0 480V20ZM96 49.5C96 65.2401 82.5685 78 66 78C49.4315 78 36 65.2401 36 49.5C36 33.7599 49.4315 21 66 21C82.5685 21 96 33.7599 96 49.5ZM161 78C177.569 78 191 65.2401 191 49.5C191 33.7599 177.569 21 161 21C144.431 21 131 33.7599 131 49.5C131 65.2401 144.431 78 161 78ZM285 49.5C285 65.2401 271.569 78 255 78C238.431 78 225 65.2401 225 49.5C225 33.7599 238.431 21 255 21C271.569 21 285 33.7599 285 49.5ZM350 78C366.569 78 380 65.2401 380 49.5C380 33.7599 366.569 21 350 21C333.431 21 320 33.7599 320 49.5C320 65.2401 333.431 78 350 78ZM475 49.5C475 65.2401 461.569 78 445 78C428.431 78 415 65.2401 415 49.5C415 33.7599 428.431 21 445 21C461.569 21 475 33.7599 475 49.5ZM540 78C556.569 78 570 65.2401 570 49.5C570 33.7599 556.569 21 540 21C523.431 21 510 33.7599 510 49.5C510 65.2401 523.431 78 540 78ZM664 49.5C664 65.2401 650.569 78 634 78C617.431 78 604 65.2401 604 49.5C604 33.7599 617.431 21 634 21C650.569 21 664 33.7599 664 49.5ZM66 158C82.5685 158 96 145.24 96 129.5C96 113.76 82.5685 101 66 101C49.4315 101 36 113.76 36 129.5C36 145.24 49.4315 158 66 158ZM191 129.5C191 145.24 177.569 158 161 158C144.431 158 131 145.24 131 129.5C131 113.76 144.431 101 161 101C177.569 101 191 113.76 191 129.5ZM255 158C271.569 158 285 145.24 285 129.5C285 113.76 271.569 101 255 101C238.431 101 225 113.76 225 129.5C225 145.24 238.431 158 255 158ZM380 129.5C380 145.24 366.569 158 350 158C333.431 158 320 145.24 320 129.5C320 113.76 333.431 101 350 101C366.569 101 380 113.76 380 129.5ZM445 158C461.569 158 475 145.24 475 129.5C475 113.76 461.569 101 445 101C428.431 101 415 113.76 415 129.5C415 145.24 428.431 158 445 158ZM570 129.5C570 145.24 556.569 158 540 158C523.431 158 510 145.24 510 129.5C510 113.76 523.431 101 540 101C556.569 101 570 113.76 570 129.5ZM634 158C650.569 158 664 145.24 664 129.5C664 113.76 650.569 101 634 101C617.431 101 604 113.76 604 129.5C604 145.24 617.431 158 634 158ZM96 209.5C96 225.24 82.5685 238 66 238C49.4315 238 36 225.24 36 209.5C36 193.76 49.4315 181 66 181C82.5685 181 96 193.76 96 209.5ZM161 238C177.569 238 191 225.24 191 209.5C191 193.76 177.569 181 161 181C144.431 181 131 193.76 131 209.5C131 225.24 144.431 238 161 238ZM285 209.5C285 225.24 271.569 238 255 238C238.431 238 225 225.24 225 209.5C225 193.76 238.431 181 255 181C271.569 181 285 193.76 285 209.5ZM350 238C366.569 238 380 225.24 380 209.5C380 193.76 366.569 181 350 181C333.431 181 320 193.76 320 209.5C320 225.24 333.431 238 350 238ZM475 209.5C475 225.24 461.569 238 445 238C428.431 238 415 225.24 415 209.5C415 193.76 428.431 181 445 181C461.569 181 475 193.76 475 209.5ZM540 238C556.569 238 570 225.24 570 209.5C570 193.76 556.569 181 540 181C523.431 181 510 193.76 510 209.5C510 225.24 523.431 238 540 238ZM664 209.5C664 225.24 650.569 238 634 238C617.431 238 604 225.24 604 209.5C604 193.76 617.431 181 634 181C650.569 181 664 193.76 664 209.5ZM66 318C82.5685 318 96 305.24 96 289.5C96 273.76 82.5685 261 66 261C49.4315 261 36 273.76 36 289.5C36 305.24 49.4315 318 66 318ZM191 289.5C191 305.24 177.569 318 161 318C144.431 318 131 305.24 131 289.5C131 273.76 144.431 261 161 261C177.569 261 191 273.76 191 289.5ZM255 318C271.569 318 285 305.24 285 289.5C285 273.76 271.569 261 255 261C238.431 261 225 273.76 225 289.5C225 305.24 238.431 318 255 318ZM380 289.5C380 305.24 366.569 318 350 318C333.431 318 320 305.24 320 289.5C320 273.76 333.431 261 350 261C366.569 261 380 273.76 380 289.5ZM445 318C461.569 318 475 305.24 475 289.5C475 273.76 461.569 261 445 261C428.431 261 415 273.76 415 289.5C415 305.24 428.431 318 445 318ZM570 289.5C570 305.24 556.569 318 540 318C523.431 318 510 305.24 510 289.5C510 273.76 523.431 261 540 261C556.569 261 570 273.76 570 289.5ZM634 318C650.569 318 664 305.24 664 289.5C664 273.76 650.569 261 634 261C617.431 261 604 273.76 604 289.5C604 305.24 617.431 318 634 318ZM96 369.5C96 385.24 82.5685 398 66 398C49.4315 398 36 385.24 36 369.5C36 353.76 49.4315 341 66 341C82.5685 341 96 353.76 96 369.5ZM161 398C177.569 398 191 385.24 191 369.5C191 353.76 177.569 341 161 341C144.431 341 131 353.76 131 369.5C131 385.24 144.431 398 161 398ZM285 369.5C285 385.24 271.569 398 255 398C238.431 398 225 385.24 225 369.5C225 353.76 238.431 341 255 341C271.569 341 285 353.76 285 369.5ZM350 398C366.569 398 380 385.24 380 369.5C380 353.76 366.569 341 350 341C333.431 341 320 353.76 320 369.5C320 385.24 333.431 398 350 398ZM475 369.5C475 385.24 461.569 398 445 398C428.431 398 415 385.24 415 369.5C415 353.76 428.431 341 445 341C461.569 341 475 353.76 475 369.5ZM540 398C556.569 398 570 385.24 570 369.5C570 353.76 556.569 341 540 341C523.431 341 510 353.76 510 369.5C510 385.24 523.431 398 540 398ZM664 369.5C664 385.24 650.569 398 634 398C617.431 398 604 385.24 604 369.5C604 353.76 617.431 341 634 341C650.569 341 664 353.76 664 369.5ZM66 478C82.5685 478 96 465.24 96 449.5C96 433.76 82.5685 421 66 421C49.4315 421 36 433.76 36 449.5C36 465.24 49.4315 478 66 478ZM191 449.5C191 465.24 177.569 478 161 478C144.431 478 131 465.24 131 449.5C131 433.76 144.431 421 161 421C177.569 421 191 433.76 191 449.5ZM255 478C271.569 478 285 465.24 285 449.5C285 433.76 271.569 421 255 421C238.431 421 225 433.76 225 449.5C225 465.24 238.431 478 255 478ZM380 449.5C380 465.24 366.569 478 350 478C333.431 478 320 465.24 320 449.5C320 433.76 333.431 421 350 421C366.569 421 380 433.76 380 449.5ZM445 478C461.569 478 475 465.24 475 449.5C475 433.76 461.569 421 445 421C428.431 421 415 433.76 415 449.5C415 465.24 428.431 478 445 478ZM570 449.5C570 465.24 556.569 478 540 478C523.431 478 510 465.24 510 449.5C510 433.76 523.431 421 540 421C556.569 421 570 433.76 570 449.5ZM634 478C650.569 478 664 465.24 664 449.5C664 433.76 650.569 421 634 421C617.431 421 604 433.76 604 449.5C604 465.24 617.431 478 634 478Z" fill="url(#paint0_linear)"/>
<g filter="url(#filter0_d)">
<path fill-rule="evenodd" clip-rule="evenodd" d="M66 83C85.33 83 101 68.0015 101 49.5C101 30.9985 85.33 16 66 16C46.67 16 31 30.9985 31 49.5C31 68.0015 46.67 83 66 83ZM96 49.5C96 65.2401 82.5685 78 66 78C49.4315 78 36 65.2401 36 49.5C36 33.7599 49.4315 21 66 21C82.5685 21 96 33.7599 96 49.5Z" fill="url(#paint1_linear)"/>
<path fill-rule="evenodd" clip-rule="evenodd" d="M66 163C85.33 163 101 148.002 101 129.5C101 110.998 85.33 96 66 96C46.67 96 31 110.998 31 129.5C31 148.002 46.67 163 66 163ZM96 129.5C96 145.24 82.5685 158 66 158C49.4315 158 36 145.24 36 129.5C36 113.76 49.4315 101 66 101C82.5685 101 96 113.76 96 129.5Z" fill="url(#paint2_linear)"/>
<path fill-rule="evenodd" clip-rule="evenodd" d="M66 243C85.33 243 101 228.002 101 209.5C101 190.998 85.33 176 66 176C46.67 176 31 190.998 31 209.5C31 228.002 46.67 243 66 243ZM96 209.5C96 225.24 82.5685 238 66 238C49.4315 238 36 225.24 36 209.5C36 193.76 49.4315 181 66 181C82.5685 181 96 193.76 96 209.5Z" fill="url(#paint3_linear)"/>
<path fill-rule="evenodd" clip-rule="evenodd" d="M66 323C85.33 323 101 308.002 101 289.5C101 270.998 85.33 256 66 256C46.67 256 31 270.998 31 289.5C31 308.002 46.67 323 66 323ZM96 289.5C96 305.24 82.5685 318 66 318C49.4315 318 36 305.24 36 289.5C36 273.76 49.4315 261 66 261C82.5685 261 96 273.76 96 289.5Z" fill="url(#paint4_linear)"/>
<path fill-rule="evenodd" clip-rule="evenodd" d="M66 403C85.33 403 101 388.002 101 369.5C101 350.998 85.33 336 66 336C46.67 336 31 350.998 31 369.5C31 388.002 46.67 403 66 403ZM96 369.5C96 385.24 82.5685 398 66 398C49.4315 398 36 385.24 36 369.5C36 353.76 49.4315 341 66 341C82.5685 341 96 353.76 96 369.5Z" fill="url(#paint5_linear)"/>
<path fill-rule="evenodd" clip-rule="evenodd" d="M66 483C85.33 483 101 468.002 101 449.5C101 430.998 85.33 416 66 416C46.67 416 31 430.998 31 449.5C31 468.002 46.67 483 66 483ZM96 449.5C96 465.24 82.5685 478 66 478C49.4315 478 36 465.24 36 449.5C36 433.76 49.4315 421 66 421C82.5685 421 96 433.76 96 449.5Z" fill="url(#paint6_linear)"/>
<path fill-rule="evenodd" clip-rule="evenodd" d="M161 83C180.33 83 196 68.0015 196 49.5C196 30.9985 180.33 16 161 16C141.67 16 126 30.9985 126 49.5C126 68.0015 141.67 83 161 83ZM191 49.5C191 65.2401 177.569 78 161 78C144.431 78 131 65.2401 131 49.5C131 33.7599 144.431 21 161 21C177.569 21 191 33.7599 191 49.5Z" fill="url(#paint7_linear)"/>
<path fill-rule="evenodd" clip-rule="evenodd" d="M161 163C180.33 163 196 148.002 196 129.5C196 110.998 180.33 96 161 96C141.67 96 126 110.998 126 129.5C126 148.002 141.67 163 161 163ZM191 129.5C191 145.24 177.569 158 161 158C144.431 158 131 145.24 131 129.5C131 113.76 144.431 101 161 101C177.569 101 191 113.76 191 129.5Z" fill="url(#paint8_linear)"/>
<path fill-rule="evenodd" clip-rule="evenodd" d="M161 243C180.33 243 196 228.002 196 209.5C196 190.998 180.33 176 161 176C141.67 176 126 190.998 126 209.5C126 228.002 141.67 243 161 243ZM191 209.5C191 225.24 177.569 238 161 238C144.431 238 131 225.24 131 209.5C131 193.76 144.431 181 161 181C177.569 181 191 193.76 191 209.5Z" fill="url(#paint9_linear)"/>
<path fill-rule="evenodd" clip-rule="evenodd" d="M161 323C180.33 323 196 308.002 196 289.5C196 270.998 180.33 256 161 256C141.67 256 126 270.998 126 289.5C126 308.002 141.67 323 161 323ZM191 289.5C191 305.24 177.569 318 161 318C144.431 318 131 305.24 131 289.5C131 273.76 144.431 261 161 261C177.569 261 191 273.76 191 289.5Z" fill="url(#paint10_linear)"/>
<path fill-rule="evenodd" clip-rule="evenodd" d="M161 403C180.33 403 196 388.002 196 369.5C196 350.998 180.33 336 161 336C141.67 336 126 350.998 126 369.5C126 388.002 141.67 403 161 403ZM191 369.5C191 385.24 177.569 398 161 398C144.431 398 131 385.24 131 369.5C131 353.76 144.431 341 161 341C177.569 341 191 353.76 191 369.5Z" fill="url(#paint11_linear)"/>
<path fill-rule="evenodd" clip-rule="evenodd" d="M161 483C180.33 483 196 468.002 196 449.5C196 430.998 180.33 416 161 416C141.67 416 126 430.998 126 449.5C126 468.002 141.67 483 161 483ZM191 449.5C191 465.24 177.569 478 161 478C144.431 478 131 465.24 131 449.5C131 433.76 144.431 421 161 421C177.569 421 191 433.76 191 449.5Z" fill="url(#paint12_linear)"/>
<path fill-rule="evenodd" clip-rule="evenodd" d="M255 83C274.33 83 290 68.0015 290 49.5C290 30.9985 274.33 16 255 16C235.67 16 220 30.9985 220 49.5C220 68.0015 235.67 83 255 83ZM285 49.5C285 65.2401 271.569 78 255 78C238.431 78 225 65.2401 225 49.5C225 33.7599 238.431 21 255 21C271.569 21 285 33.7599 285 49.5Z" fill="url(#paint13_linear)"/>
<path fill-rule="evenodd" clip-rule="evenodd" d="M255 163C274.33 163 290 148.002 290 129.5C290 110.998 274.33 96 255 96C235.67 96 220 110.998 220 129.5C220 148.002 235.67 163 255 163ZM285 129.5C285 145.24 271.569 158 255 158C238.431 158 225 145.24 225 129.5C225 113.76 238.431 101 255 101C271.569 101 285 113.76 285 129.5Z" fill="url(#paint14_linear)"/>
<path fill-rule="evenodd" clip-rule="evenodd" d="M255 243C274.33 243 290 228.002 290 209.5C290 190.998 274.33 176 255 176C235.67 176 220 190.998 220 209.5C220 228.002 235.67 243 255 243ZM285 209.5C285 225.24 271.569 238 255 238C238.431 238 225 225.24 225 209.5C225 193.76 238.431 181 255 181C271.569 181 285 193.76 285 209.5Z" fill="url(#paint15_linear)"/>
<path fill-rule="evenodd" clip-rule="evenodd" d="M255 323C274.33 323 290 308.002 290 289.5C290 270.998 274.33 256 255 256C235.67 256 220 270.998 220 289.5C220 308.002 235.67 323 255 323ZM285 289.5C285 305.24 271.569 318 255 318C238.431 318 225 305.24 225 289.5C225 273.76 238.431 261 255 261C271.569 261 285 273.76 285 289.5Z" fill="url(#paint16_linear)"/>
<path fill-rule="evenodd" clip-rule="evenodd" d="M255 403C274.33 403 290 388.002 290 369.5C290 350.998 274.33 336 255 336C235.67 336 220 350.998 220 369.5C220 388.002 235.67 403 255 403ZM285 369.5C285 385.24 271.569 398 255 398C238.431 398 225 385.24 225 369.5C225 353.76 238.431 341 255 341C271.569 341 285 353.76 285 369.5Z" fill="url(#paint17_linear)"/>
<path fill-rule="evenodd" clip-rule="evenodd" d="M255 483C274.33 483 290 468.002 290 449.5C290 430.998 274.33 416 255 416C235.67 416 220 430.998 220 449.5C220 468.002 235.67 483 255 483ZM285 449.5C285 465.24 271.569 478 255 478C238.431 478 225 465.24 225 449.5C225 433.76 238.431 421 255 421C271.569 421 285 433.76 285 449.5Z" fill="url(#paint18_linear)"/>
<path fill-rule="evenodd" clip-rule="evenodd" d="M350 83C369.33 83 385 68.0015 385 49.5C385 30.9985 369.33 16 350 16C330.67 16 315 30.9985 315 49.5C315 68.0015 330.67 83 350 83ZM380 49.5C380 65.2401 366.569 78 350 78C333.431 78 320 65.2401 320 49.5C320 33.7599 333.431 21 350 21C366.569 21 380 33.7599 380 49.5Z" fill="url(#paint19_linear)"/>
<path fill-rule="evenodd" clip-rule="evenodd" d="M350 163C369.33 163 385 148.002 385 129.5C385 110.998 369.33 96 350 96C330.67 96 315 110.998 315 129.5C315 148.002 330.67 163 350 163ZM380 129.5C380 145.24 366.569 158 350 158C333.431 158 320 145.24 320 129.5C320 113.76 333.431 101 350 101C366.569 101 380 113.76 380 129.5Z" fill="url(#paint20_linear)"/>
<path fill-rule="evenodd" clip-rule="evenodd" d="M350 243C369.33 243 385 228.002 385 209.5C385 190.998 369.33 176 350 176C330.67 176 315 190.998 315 209.5C315 228.002 330.67 243 350 243ZM380 209.5C380 225.24 366.569 238 350 238C333.431 238 320 225.24 320 209.5C320 193.76 333.431 181 350 181C366.569 181 380 193.76 380 209.5Z" fill="url(#paint21_linear)"/>
<path fill-rule="evenodd" clip-rule="evenodd" d="M350 323C369.33 323 385 308.002 385 289.5C385 270.998 369.33 256 350 256C330.67 256 315 270.998 315 289.5C315 308.002 330.67 323 350 323ZM380 289.5C380 305.24 366.569 318 350 318C333.431 318 320 305.24 320 289.5C320 273.76 333.431 261 350 261C366.569 261 380 273.76 380 289.5Z" fill="url(#paint22_linear)"/>
<path fill-rule="evenodd" clip-rule="evenodd" d="M350 403C369.33 403 385 388.002 385 369.5C385 350.998 369.33 336 350 336C330.67 336 315 350.998 315 369.5C315 388.002 330.67 403 350 403ZM380 369.5C380 385.24 366.569 398 350 398C333.431 398 320 385.24 320 369.5C320 353.76 333.431 341 350 341C366.569 341 380 353.76 380 369.5Z" fill="url(#paint23_linear)"/>
<path fill-rule="evenodd" clip-rule="evenodd" d="M350 483C369.33 483 385 468.002 385 449.5C385 430.998 369.33 416 350 416C330.67 416 315 430.998 315 449.5C315 468.002 330.67 483 350 483ZM380 449.5C380 465.24 366.569 478 350 478C333.431 478 320 465.24 320 449.5C320 433.76 333.431 421 350 421C366.569 421 380 433.76 380 449.5Z" fill="url(#paint24_linear)"/>
<path fill-rule="evenodd" clip-rule="evenodd" d="M445 83C464.33 83 480 68.0015 480 49.5C480 30.9985 464.33 16 445 16C425.67 16 410 30.9985 410 49.5C410 68.0015 425.67 83 445 83ZM475 49.5C475 65.2401 461.569 78 445 78C428.431 78 415 65.2401 415 49.5C415 33.7599 428.431 21 445 21C461.569 21 475 33.7599 475 49.5Z" fill="url(#paint25_linear)"/>
<path fill-rule="evenodd" clip-rule="evenodd" d="M445 163C464.33 163 480 148.002 480 129.5C480 110.998 464.33 96 445 96C425.67 96 410 110.998 410 129.5C410 148.002 425.67 163 445 163ZM475 129.5C475 145.24 461.569 158 445 158C428.431 158 415 145.24 415 129.5C415 113.76 428.431 101 445 101C461.569 101 475 113.76 475 129.5Z" fill="url(#paint26_linear)"/>
<path fill-rule="evenodd" clip-rule="evenodd" d="M445 243C464.33 243 480 228.002 480 209.5C480 190.998 464.33 176 445 176C425.67 176 410 190.998 410 209.5C410 228.002 425.67 243 445 243ZM475 209.5C475 225.24 461.569 238 445 238C428.431 238 415 225.24 415 209.5C415 193.76 428.431 181 445 181C461.569 181 475 193.76 475 209.5Z" fill="url(#paint27_linear)"/>
<path fill-rule="evenodd" clip-rule="evenodd" d="M445 323C464.33 323 480 308.002 480 289.5C480 270.998 464.33 256 445 256C425.67 256 410 270.998 410 289.5C410 308.002 425.67 323 445 323ZM475 289.5C475 305.24 461.569 318 445 318C428.431 318 415 305.24 415 289.5C415 273.76 428.431 261 445 261C461.569 261 475 273.76 475 289.5Z" fill="url(#paint28_linear)"/>
<path fill-rule="evenodd" clip-rule="evenodd" d="M445 403C464.33 403 480 388.002 480 369.5C480 350.998 464.33 336 445 336C425.67 336 410 350.998 410 369.5C410 388.002 425.67 403 445 403ZM475 369.5C475 385.24 461.569 398 445 398C428.431 398 415 385.24 415 369.5C415 353.76 428.431 341 445 341C461.569 341 475 353.76 475 369.5Z" fill="url(#paint29_linear)"/>
<path fill-rule="evenodd" clip-rule="evenodd" d="M445 483C464.33 483 480 468.002 480 449.5C480 430.998 464.33 416 445 416C425.67 416 410 430.998 410 449.5C410 468.002 425.67 483 445 483ZM475 449.5C475 465.24 461.569 478 445 478C428.431 478 415 465.24 415 449.5C415 433.76 428.431 421 445 421C461.569 421 475 433.76 475 449.5Z" fill="url(#paint30_linear)"/>
<path fill-rule="evenodd" clip-rule="evenodd" d="M540 83C559.33 83 575 68.0015 575 49.5C575 30.9985 559.33 16 540 16C520.67 16 505 30.9985 505 49.5C505 68.0015 520.67 83 540 83ZM570 49.5C570 65.2401 556.569 78 540 78C523.431 78 510 65.2401 510 49.5C510 33.7599 523.431 21 540 21C556.569 21 570 33.7599 570 49.5Z" fill="url(#paint31_linear)"/>
<path fill-rule="evenodd" clip-rule="evenodd" d="M540 163C559.33 163 575 148.002 575 129.5C575 110.998 559.33 96 540 96C520.67 96 505 110.998 505 129.5C505 148.002 520.67 163 540 163ZM570 129.5C570 145.24 556.569 158 540 158C523.431 158 510 145.24 510 129.5C510 113.76 523.431 101 540 101C556.569 101 570 113.76 570 129.5Z" fill="url(#paint32_linear)"/>
<path fill-rule="evenodd" clip-rule="evenodd" d="M540 243C559.33 243 575 228.002 575 209.5C575 190.998 559.33 176 540 176C520.67 176 505 190.998 505 209.5C505 228.002 520.67 243 540 243ZM570 209.5C570 225.24 556.569 238 540 238C523.431 238 510 225.24 510 209.5C510 193.76 523.431 181 540 181C556.569 181 570 193.76 570 209.5Z" fill="url(#paint33_linear)"/>
<path fill-rule="evenodd" clip-rule="evenodd" d="M540 323C559.33 323 575 308.002 575 289.5C575 270.998 559.33 256 540 256C520.67 256 505 270.998 505 289.5C505 308.002 520.67 323 540 323ZM570 289.5C570 305.24 556.569 318 540 318C523.431 318 510 305.24 510 289.5C510 273.76 523.431 261 540 261C556.569 261 570 273.76 570 289.5Z" fill="url(#paint34_linear)"/>
<path fill-rule="evenodd" clip-rule="evenodd" d="M540 403C559.33 403 575 388.002 575 369.5C575 350.998 559.33 336 540 336C520.67 336 505 350.998 505 369.5C505 388.002 520.67 403 540 403ZM570 369.5C570 385.24 556.569 398 540 398C523.431 398 510 385.24 510 369.5C510 353.76 523.431 341 540 341C556.569 341 570 353.76 570 369.5Z" fill="url(#paint35_linear)"/>
<path fill-rule="evenodd" clip-rule="evenodd" d="M540 483C559.33 483 575 468.002 575 449.5C575 430.998 559.33 416 540 416C520.67 416 505 430.998 505 449.5C505 468.002 520.67 483 540 483ZM570 449.5C570 465.24 556.569 478 540 478C523.431 478 510 465.24 510 449.5C510 433.76 523.431 421 540 421C556.569 421 570 433.76 570 449.5Z" fill="url(#paint36_linear)"/>
<path fill-rule="evenodd" clip-rule="evenodd" d="M634 83C653.33 83 669 68.0015 669 49.5C669 30.9985 653.33 16 634 16C614.67 16 599 30.9985 599 49.5C599 68.0015 614.67 83 634 83ZM664 49.5C664 65.2401 650.569 78 634 78C617.431 78 604 65.2401 604 49.5C604 33.7599 617.431 21 634 21C650.569 21 664 33.7599 664 49.5Z" fill="url(#paint37_linear)"/>
<path fill-rule="evenodd" clip-rule="evenodd" d="M634 163C653.33 163 669 148.002 669 129.5C669 110.998 653.33 96 634 96C614.67 96 599 110.998 599 129.5C599 148.002 614.67 163 634 163ZM664 129.5C664 145.24 650.569 158 634 158C617.431 158 604 145.24 604 129.5C604 113.76 617.431 101 634 101C650.569 101 664 113.76 664 129.5Z" fill="url(#paint38_linear)"/>
<path fill-rule="evenodd" clip-rule="evenodd" d="M634 243C653.33 243 669 228.002 669 209.5C669 190.998 653.33 176 634 176C614.67 176 599 190.998 599 209.5C599 228.002 614.67 243 634 243ZM664 209.5C664 225.24 650.569 238 634 238C617.431 238 604 225.24 604 209.5C604 193.76 617.431 181 634 181C650.569 181 664 193.76 664 209.5Z" fill="url(#paint39_linear)"/>
<path fill-rule="evenodd" clip-rule="evenodd" d="M634 323C653.33 323 669 308.002 669 289.5C669 270.998 653.33 256 634 256C614.67 256 599 270.998 599 289.5C599 308.002 614.67 323 634 323ZM664 289.5C664 305.24 650.569 318 634 318C617.431 318 604 305.24 604 289.5C604 273.76 617.431 261 634 261C650.569 261 664 273.76 664 289.5Z" fill="url(#paint40_linear)"/>
<path fill-rule="evenodd" clip-rule="evenodd" d="M634 403C653.33 403 669 388.002 669 369.5C669 350.998 653.33 336 634 336C614.67 336 599 350.998 599 369.5C599 388.002 614.67 403 634 403ZM664 369.5C664 385.24 650.569 398 634 398C617.431 398 604 385.24 604 369.5C604 353.76 617.431 341 634 341C650.569 341 664 353.76 664 369.5Z" fill="url(#paint41_linear)"/>
<path fill-rule="evenodd" clip-rule="evenodd" d="M634 483C653.33 483 669 468.002 669 449.5C669 430.998 653.33 416 634 416C614.67 416 599 430.998 599 449.5C599 468.002 614.67 483 634 483ZM664 449.5C664 465.24 650.569 478 634 478C617.431 478 604 465.24 604 449.5C604 433.76 617.431 421 634 421C650.569 421 664 433.76 664 449.5Z" fill="url(#paint42_linear)"/>
</g>
<defs>
<filter id="filter0_d" x="27" y="14" width="646" height="475" filterUnits="userSpaceOnUse" color-interpolation-filters="sRGB">
<feFlood flood-opacity="0" result="BackgroundImageFix"/>
<feColorMatrix in="SourceAlpha" type="matrix" values="0 0 0 0 0 0 0 0 0 0 0 0 0 0 0 0 0 0 127 0"/>
<feOffset dy="2"/>
<feGaussianBlur stdDeviation="2"/>
<feColorMatrix type="matrix" values="0 0 0 0 0 0 0 0 0 0 0 0 0 0 0 0 0 0 0.25 0"/>
<feBlend mode="normal" in2="BackgroundImageFix" result="effect1_dropShadow"/>
<feBlend mode="normal" in="SourceGraphic" in2="effect1_dropShadow" result="shape"/>
</filter>
<linearGradient id="paint0_linear" x1="350" y1="0" x2="350" y2="500" gradientUnits="userSpaceOnUse">
<stop stop-color="#006ACC" stop-opacity="0.73"/>
<stop offset="1" stop-color="#015AAC"/>
</linearGradient>
<linearGradient id="paint1_linear" x1="66" y1="16" x2="66" y2="83" gradientUnits="userSpaceOnUse">
<stop stop-color="#7BC0FF"/>
<stop offset="0.416667" stop-color="#288EEC"/>
</linearGradient>
<linearGradient id="paint2_linear" x1="66" y1="96" x2="66" y2="163" gradientUnits="userSpaceOnUse">
<stop stop-color="#7BC0FF"/>
<stop offset="0.416667" stop-color="#288EEC"/>
</linearGradient>
<linearGradient id="paint3_linear" x1="66" y1="176" x2="66" y2="243" gradientUnits="userSpaceOnUse">
<stop stop-color="#7BC0FF"/>
<stop offset="0.416667" stop-color="#288EEC"/>
</linearGradient>
<linearGradient id="paint4_linear" x1="66" y1="256" x2="66" y2="323" gradientUnits="userSpaceOnUse">
<stop stop-color="#7BC0FF"/>
<stop offset="0.416667" stop-color="#288EEC"/>
</linearGradient>
<linearGradient id="paint5_linear" x1="66" y1="336" x2="66" y2="403" gradientUnits="userSpaceOnUse">
<stop stop-color="#7BC0FF"/>
<stop offset="0.416667" stop-color="#288EEC"/>
</linearGradient>
<linearGradient id="paint6_linear" x1="66" y1="416" x2="66" y2="483" gradientUnits="userSpaceOnUse">
<stop stop-color="#7BC0FF"/>
<stop offset="0.416667" stop-color="#288EEC"/>
</linearGradient>
<linearGradient id="paint7_linear" x1="161" y1="16" x2="161" y2="83" gradientUnits="userSpaceOnUse">
<stop stop-color="#7BC0FF"/>
<stop offset="0.416667" stop-color="#288EEC"/>
</linearGradient>
<linearGradient id="paint8_linear" x1="161" y1="96" x2="161" y2="163" gradientUnits="userSpaceOnUse">
<stop stop-color="#7BC0FF"/>
<stop offset="0.416667" stop-color="#288EEC"/>
</linearGradient>
<linearGradient id="paint9_linear" x1="161" y1="176" x2="161" y2="243" gradientUnits="userSpaceOnUse">
<stop stop-color="#7BC0FF"/>
<stop offset="0.416667" stop-color="#288EEC"/>
</linearGradient>
<linearGradient id="paint10_linear" x1="161" y1="256" x2="161" y2="323" gradientUnits="userSpaceOnUse">
<stop stop-color="#7BC0FF"/>
<stop offset="0.416667" stop-color="#288EEC"/>
</linearGradient>
<linearGradient id="paint11_linear" x1="161" y1="336" x2="161" y2="403" gradientUnits="userSpaceOnUse">
<stop stop-color="#7BC0FF"/>
<stop offset="0.416667" stop-color="#288EEC"/>
</linearGradient>
<linearGradient id="paint12_linear" x1="161" y1="416" x2="161" y2="483" gradientUnits="userSpaceOnUse">
<stop stop-color="#7BC0FF"/>
<stop offset="0.416667" stop-color="#288EEC"/>
</linearGradient>
<linearGradient id="paint13_linear" x1="255" y1="16" x2="255" y2="83" gradientUnits="userSpaceOnUse">
<stop stop-color="#7BC0FF"/>
<stop offset="0.416667" stop-color="#288EEC"/>
</linearGradient>
<linearGradient id="paint14_linear" x1="255" y1="96" x2="255" y2="163" gradientUnits="userSpaceOnUse">
<stop stop-color="#7BC0FF"/>
<stop offset="0.416667" stop-color="#288EEC"/>
</linearGradient>
<linearGradient id="paint15_linear" x1="255" y1="176" x2="255" y2="243" gradientUnits="userSpaceOnUse">
<stop stop-color="#7BC0FF"/>
<stop offset="0.416667" stop-color="#288EEC"/>
</linearGradient>
<linearGradient id="paint16_linear" x1="255" y1="256" x2="255" y2="323" gradientUnits="userSpaceOnUse">
<stop stop-color="#7BC0FF"/>
<stop offset="0.416667" stop-color="#288EEC"/>
</linearGradient>
<linearGradient id="paint17_linear" x1="255" y1="336" x2="255" y2="403" gradientUnits="userSpaceOnUse">
<stop stop-color="#7BC0FF"/>
<stop offset="0.416667" stop-color="#288EEC"/>
</linearGradient>
<linearGradient id="paint18_linear" x1="255" y1="416" x2="255" y2="483" gradientUnits="userSpaceOnUse">
<stop stop-color="#7BC0FF"/>
<stop offset="0.416667" stop-color="#288EEC"/>
</linearGradient>
<linearGradient id="paint19_linear" x1="350" y1="16" x2="350" y2="83" gradientUnits="userSpaceOnUse">
<stop stop-color="#7BC0FF"/>
<stop offset="0.416667" stop-color="#288EEC"/>
</linearGradient>
<linearGradient id="paint20_linear" x1="350" y1="96" x2="350" y2="163" gradientUnits="userSpaceOnUse">
<stop stop-color="#7BC0FF"/>
<stop offset="0.416667" stop-color="#288EEC"/>
</linearGradient>
<linearGradient id="paint21_linear" x1="350" y1="176" x2="350" y2="243" gradientUnits="userSpaceOnUse">
<stop stop-color="#7BC0FF"/>
<stop offset="0.416667" stop-color="#288EEC"/>
</linearGradient>
<linearGradient id="paint22_linear" x1="350" y1="256" x2="350" y2="323" gradientUnits="userSpaceOnUse">
<stop stop-color="#7BC0FF"/>
<stop offset="0.416667" stop-color="#288EEC"/>
</linearGradient>
<linearGradient id="paint23_linear" x1="350" y1="336" x2="350" y2="403" gradientUnits="userSpaceOnUse">
<stop stop-color="#7BC0FF"/>
<stop offset="0.416667" stop-color="#288EEC"/>
</linearGradient>
<linearGradient id="paint24_linear" x1="350" y1="416" x2="350" y2="483" gradientUnits="userSpaceOnUse">
<stop stop-color="#7BC0FF"/>
<stop offset="0.416667" stop-color="#288EEC"/>
</linearGradient>
<linearGradient id="paint25_linear" x1="445" y1="16" x2="445" y2="83" gradientUnits="userSpaceOnUse">
<stop stop-color="#7BC0FF"/>
<stop offset="0.416667" stop-color="#288EEC"/>
</linearGradient>
<linearGradient id="paint26_linear" x1="445" y1="96" x2="445" y2="163" gradientUnits="userSpaceOnUse">
<stop stop-color="#7BC0FF"/>
<stop offset="0.416667" stop-color="#288EEC"/>
</linearGradient>
<linearGradient id="paint27_linear" x1="445" y1="176" x2="445" y2="243" gradientUnits="userSpaceOnUse">
<stop stop-color="#7BC0FF"/>
<stop offset="0.416667" stop-color="#288EEC"/>
</linearGradient>
<linearGradient id="paint28_linear" x1="445" y1="256" x2="445" y2="323" gradientUnits="userSpaceOnUse">
<stop stop-color="#7BC0FF"/>
<stop offset="0.416667" stop-color="#288EEC"/>
</linearGradient>
<linearGradient id="paint29_linear" x1="445" y1="336" x2="445" y2="403" gradientUnits="userSpaceOnUse">
<stop stop-color="#7BC0FF"/>
<stop offset="0.416667" stop-color="#288EEC"/>
</linearGradient>
<linearGradient id="paint30_linear" x1="445" y1="416" x2="445" y2="483" gradientUnits="userSpaceOnUse">
<stop stop-color="#7BC0FF"/>
<stop offset="0.416667" stop-color="#288EEC"/>
</linearGradient>
<linearGradient id="paint31_linear" x1="540" y1="16" x2="540" y2="83" gradientUnits="userSpaceOnUse">
<stop stop-color="#7BC0FF"/>
<stop offset="0.416667" stop-color="#288EEC"/>
</linearGradient>
<linearGradient id="paint32_linear" x1="540" y1="96" x2="540" y2="163" gradientUnits="userSpaceOnUse">
<stop stop-color="#7BC0FF"/>
<stop offset="0.416667" stop-color="#288EEC"/>
</linearGradient>
<linearGradient id="paint33_linear" x1="540" y1="176" x2="540" y2="243" gradientUnits="userSpaceOnUse">
<stop stop-color="#7BC0FF"/>
<stop offset="0.416667" stop-color="#288EEC"/>
</linearGradient>
<linearGradient id="paint34_linear" x1="540" y1="256" x2="540" y2="323" gradientUnits="userSpaceOnUse">
<stop stop-color="#7BC0FF"/>
<stop offset="0.416667" stop-color="#288EEC"/>
</linearGradient>
<linearGradient id="paint35_linear" x1="540" y1="336" x2="540" y2="403" gradientUnits="userSpaceOnUse">
<stop stop-color="#7BC0FF"/>
<stop offset="0.416667" stop-color="#288EEC"/>
</linearGradient>
<linearGradient id="paint36_linear" x1="540" y1="416" x2="540" y2="483" gradientUnits="userSpaceOnUse">
<stop stop-color="#7BC0FF"/>
<stop offset="0.416667" stop-color="#288EEC"/>
</linearGradient>
<linearGradient id="paint37_linear" x1="634" y1="16" x2="634" y2="83" gradientUnits="userSpaceOnUse">
<stop stop-color="#7BC0FF"/>
<stop offset="0.416667" stop-color="#288EEC"/>
</linearGradient>
<linearGradient id="paint38_linear" x1="634" y1="96" x2="634" y2="163" gradientUnits="userSpaceOnUse">
<stop stop-color="#7BC0FF"/>
<stop offset="0.416667" stop-color="#288EEC"/>
</linearGradient>
<linearGradient id="paint39_linear" x1="634" y1="176" x2="634" y2="243" gradientUnits="userSpaceOnUse">
<stop stop-color="#7BC0FF"/>
<stop offset="0.416667" stop-color="#288EEC"/>
</linearGradient>
<linearGradient id="paint40_linear" x1="634" y1="256" x2="634" y2="323" gradientUnits="userSpaceOnUse">
<stop stop-color="#7BC0FF"/>
<stop offset="0.416667" stop-color="#288EEC"/>
</linearGradient>
<linearGradient id="paint41_linear" x1="634" y1="336" x2="634" y2="403" gradientUnits="userSpaceOnUse">
<stop stop-color="#7BC0FF"/>
<stop offset="0.416667" stop-color="#288EEC"/>
</linearGradient>
<linearGradient id="paint42_linear" x1="634" y1="416" x2="634" y2="483" gradientUnits="userSpaceOnUse">
<stop stop-color="#7BC0FF"/>
<stop offset="0.416667" stop-color="#288EEC"/>
</linearGradient>
</defs>
</svg>
